%TF.GenerationSoftware,KiCad,Pcbnew,5.1.7-a382d34a8~87~ubuntu18.04.1*%
%TF.CreationDate,2021-12-24T14:38:43-05:00*%
%TF.ProjectId,Source_Balancer_SMD,536f7572-6365-45f4-9261-6c616e636572,rev?*%
%TF.SameCoordinates,Original*%
%TF.FileFunction,Legend,Bot*%
%TF.FilePolarity,Positive*%
%FSLAX46Y46*%
G04 Gerber Fmt 4.6, Leading zero omitted, Abs format (unit mm)*
G04 Created by KiCad (PCBNEW 5.1.7-a382d34a8~87~ubuntu18.04.1) date 2021-12-24 14:38:43*
%MOMM*%
%LPD*%
G01*
G04 APERTURE LIST*
%ADD10C,0.200000*%
G04 APERTURE END LIST*
D10*
X126825000Y-54871428D02*
X126491666Y-56204761D01*
X126158333Y-55252380D01*
X125825000Y-56204761D01*
X125491666Y-54871428D01*
X124991666Y-54871428D02*
X124658333Y-56204761D01*
X124325000Y-55252380D01*
X123991666Y-56204761D01*
X123658333Y-54871428D01*
X123158333Y-54871428D02*
X122825000Y-56204761D01*
X122491666Y-55252380D01*
X122158333Y-56204761D01*
X121825000Y-54871428D01*
X121158333Y-56014285D02*
X121075000Y-56109523D01*
X121158333Y-56204761D01*
X121241666Y-56109523D01*
X121158333Y-56014285D01*
X121158333Y-56204761D01*
X119575000Y-56204761D02*
X119575000Y-55157142D01*
X119658333Y-54966666D01*
X119825000Y-54871428D01*
X120158333Y-54871428D01*
X120325000Y-54966666D01*
X119575000Y-56109523D02*
X119741666Y-56204761D01*
X120158333Y-56204761D01*
X120325000Y-56109523D01*
X120408333Y-55919047D01*
X120408333Y-55728571D01*
X120325000Y-55538095D01*
X120158333Y-55442857D01*
X119741666Y-55442857D01*
X119575000Y-55347619D01*
X117991666Y-56109523D02*
X118158333Y-56204761D01*
X118491666Y-56204761D01*
X118658333Y-56109523D01*
X118741666Y-56014285D01*
X118825000Y-55823809D01*
X118825000Y-55252380D01*
X118741666Y-55061904D01*
X118658333Y-54966666D01*
X118491666Y-54871428D01*
X118158333Y-54871428D01*
X117991666Y-54966666D01*
X116991666Y-56204761D02*
X117158333Y-56109523D01*
X117241666Y-56014285D01*
X117325000Y-55823809D01*
X117325000Y-55252380D01*
X117241666Y-55061904D01*
X117158333Y-54966666D01*
X116991666Y-54871428D01*
X116741666Y-54871428D01*
X116575000Y-54966666D01*
X116491666Y-55061904D01*
X116408333Y-55252380D01*
X116408333Y-55823809D01*
X116491666Y-56014285D01*
X116575000Y-56109523D01*
X116741666Y-56204761D01*
X116991666Y-56204761D01*
X115658333Y-56204761D02*
X115658333Y-54871428D01*
X115658333Y-55252380D02*
X115575000Y-55061904D01*
X115491666Y-54966666D01*
X115325000Y-54871428D01*
X115158333Y-54871428D01*
X113825000Y-56204761D02*
X113825000Y-54204761D01*
X113825000Y-56109523D02*
X113991666Y-56204761D01*
X114325000Y-56204761D01*
X114491666Y-56109523D01*
X114575000Y-56014285D01*
X114658333Y-55823809D01*
X114658333Y-55252380D01*
X114575000Y-55061904D01*
X114491666Y-54966666D01*
X114325000Y-54871428D01*
X113991666Y-54871428D01*
X113825000Y-54966666D01*
X112991666Y-56204761D02*
X112991666Y-54871428D01*
X112991666Y-54204761D02*
X113075000Y-54300000D01*
X112991666Y-54395238D01*
X112908333Y-54300000D01*
X112991666Y-54204761D01*
X112991666Y-54395238D01*
X112158333Y-54871428D02*
X112158333Y-56204761D01*
X112158333Y-55061904D02*
X112075000Y-54966666D01*
X111908333Y-54871428D01*
X111658333Y-54871428D01*
X111491666Y-54966666D01*
X111408333Y-55157142D01*
X111408333Y-56204761D01*
X109825000Y-54871428D02*
X109825000Y-56490476D01*
X109908333Y-56680952D01*
X109991666Y-56776190D01*
X110158333Y-56871428D01*
X110408333Y-56871428D01*
X110575000Y-56776190D01*
X109825000Y-56109523D02*
X109991666Y-56204761D01*
X110325000Y-56204761D01*
X110491666Y-56109523D01*
X110575000Y-56014285D01*
X110658333Y-55823809D01*
X110658333Y-55252380D01*
X110575000Y-55061904D01*
X110491666Y-54966666D01*
X110325000Y-54871428D01*
X109991666Y-54871428D01*
X109825000Y-54966666D01*
X108741666Y-56204761D02*
X108908333Y-56109523D01*
X108991666Y-55919047D01*
X108991666Y-54204761D01*
X107408333Y-56109523D02*
X107575000Y-56204761D01*
X107908333Y-56204761D01*
X108075000Y-56109523D01*
X108158333Y-55919047D01*
X108158333Y-55157142D01*
X108075000Y-54966666D01*
X107908333Y-54871428D01*
X107575000Y-54871428D01*
X107408333Y-54966666D01*
X107325000Y-55157142D01*
X107325000Y-55347619D01*
X108158333Y-55538095D01*
X106741666Y-54871428D02*
X106325000Y-56204761D01*
X105908333Y-54871428D02*
X106325000Y-56204761D01*
X106491666Y-56680952D01*
X106575000Y-56776190D01*
X106741666Y-56871428D01*
X105241666Y-56014285D02*
X105158333Y-56109523D01*
X105241666Y-56204761D01*
X105325000Y-56109523D01*
X105241666Y-56014285D01*
X105241666Y-56204761D01*
X103658333Y-54871428D02*
X103658333Y-56204761D01*
X104408333Y-54871428D02*
X104408333Y-55919047D01*
X104325000Y-56109523D01*
X104158333Y-56204761D01*
X103908333Y-56204761D01*
X103741666Y-56109523D01*
X103658333Y-56014285D01*
X102908333Y-56109523D02*
X102741666Y-56204761D01*
X102408333Y-56204761D01*
X102241666Y-56109523D01*
X102158333Y-55919047D01*
X102158333Y-55823809D01*
X102241666Y-55633333D01*
X102408333Y-55538095D01*
X102658333Y-55538095D01*
X102825000Y-55442857D01*
X102908333Y-55252380D01*
X102908333Y-55157142D01*
X102825000Y-54966666D01*
X102658333Y-54871428D01*
X102408333Y-54871428D01*
X102241666Y-54966666D01*
X132283333Y-54066666D02*
X132366666Y-53971428D01*
X132533333Y-53685714D01*
X132616666Y-53495238D01*
X132700000Y-53209523D01*
X132783333Y-52733333D01*
X132783333Y-52352380D01*
X132700000Y-51876190D01*
X132616666Y-51590476D01*
X132533333Y-51400000D01*
X132366666Y-51114285D01*
X132283333Y-51019047D01*
X130616666Y-53114285D02*
X130700000Y-53209523D01*
X130950000Y-53304761D01*
X131116666Y-53304761D01*
X131366666Y-53209523D01*
X131533333Y-53019047D01*
X131616666Y-52828571D01*
X131700000Y-52447619D01*
X131700000Y-52161904D01*
X131616666Y-51780952D01*
X131533333Y-51590476D01*
X131366666Y-51400000D01*
X131116666Y-51304761D01*
X130950000Y-51304761D01*
X130700000Y-51400000D01*
X130616666Y-51495238D01*
X130033333Y-54066666D02*
X129950000Y-53971428D01*
X129783333Y-53685714D01*
X129700000Y-53495238D01*
X129616666Y-53209523D01*
X129533333Y-52733333D01*
X129533333Y-52352380D01*
X129616666Y-51876190D01*
X129700000Y-51590476D01*
X129783333Y-51400000D01*
X129950000Y-51114285D01*
X130033333Y-51019047D01*
X127450000Y-51495238D02*
X127366666Y-51400000D01*
X127200000Y-51304761D01*
X126783333Y-51304761D01*
X126616666Y-51400000D01*
X126533333Y-51495238D01*
X126450000Y-51685714D01*
X126450000Y-51876190D01*
X126533333Y-52161904D01*
X127533333Y-53304761D01*
X126450000Y-53304761D01*
X125366666Y-51304761D02*
X125200000Y-51304761D01*
X125033333Y-51400000D01*
X124950000Y-51495238D01*
X124866666Y-51685714D01*
X124783333Y-52066666D01*
X124783333Y-52542857D01*
X124866666Y-52923809D01*
X124950000Y-53114285D01*
X125033333Y-53209523D01*
X125200000Y-53304761D01*
X125366666Y-53304761D01*
X125533333Y-53209523D01*
X125616666Y-53114285D01*
X125700000Y-52923809D01*
X125783333Y-52542857D01*
X125783333Y-52066666D01*
X125700000Y-51685714D01*
X125616666Y-51495238D01*
X125533333Y-51400000D01*
X125366666Y-51304761D01*
X124116666Y-51495238D02*
X124033333Y-51400000D01*
X123866666Y-51304761D01*
X123450000Y-51304761D01*
X123283333Y-51400000D01*
X123200000Y-51495238D01*
X123116666Y-51685714D01*
X123116666Y-51876190D01*
X123200000Y-52161904D01*
X124200000Y-53304761D01*
X123116666Y-53304761D01*
X121450000Y-53304761D02*
X122450000Y-53304761D01*
X121950000Y-53304761D02*
X121950000Y-51304761D01*
X122116666Y-51590476D01*
X122283333Y-51780952D01*
X122450000Y-51876190D01*
X119450000Y-52733333D02*
X118616666Y-52733333D01*
X119616666Y-53304761D02*
X119033333Y-51304761D01*
X118450000Y-53304761D01*
X117866666Y-53304761D02*
X117866666Y-51304761D01*
X117450000Y-51304761D01*
X117200000Y-51400000D01*
X117033333Y-51590476D01*
X116950000Y-51780952D01*
X116866666Y-52161904D01*
X116866666Y-52447619D01*
X116950000Y-52828571D01*
X117033333Y-53019047D01*
X117200000Y-53209523D01*
X117450000Y-53304761D01*
X117866666Y-53304761D01*
X116200000Y-52733333D02*
X115366666Y-52733333D01*
X116366666Y-53304761D02*
X115783333Y-51304761D01*
X115200000Y-53304761D01*
X114616666Y-53304761D02*
X114616666Y-51304761D01*
X114033333Y-52733333D01*
X113450000Y-51304761D01*
X113450000Y-53304761D01*
X110283333Y-53114285D02*
X110366666Y-53209523D01*
X110616666Y-53304761D01*
X110783333Y-53304761D01*
X111033333Y-53209523D01*
X111200000Y-53019047D01*
X111283333Y-52828571D01*
X111366666Y-52447619D01*
X111366666Y-52161904D01*
X111283333Y-51780952D01*
X111200000Y-51590476D01*
X111033333Y-51400000D01*
X110783333Y-51304761D01*
X110616666Y-51304761D01*
X110366666Y-51400000D01*
X110283333Y-51495238D01*
X109200000Y-51304761D02*
X108866666Y-51304761D01*
X108700000Y-51400000D01*
X108533333Y-51590476D01*
X108450000Y-51971428D01*
X108450000Y-52638095D01*
X108533333Y-53019047D01*
X108700000Y-53209523D01*
X108866666Y-53304761D01*
X109200000Y-53304761D01*
X109366666Y-53209523D01*
X109533333Y-53019047D01*
X109616666Y-52638095D01*
X109616666Y-51971428D01*
X109533333Y-51590476D01*
X109366666Y-51400000D01*
X109200000Y-51304761D01*
X106700000Y-53304761D02*
X107283333Y-52352380D01*
X107700000Y-53304761D02*
X107700000Y-51304761D01*
X107033333Y-51304761D01*
X106866666Y-51400000D01*
X106783333Y-51495238D01*
X106700000Y-51685714D01*
X106700000Y-51971428D01*
X106783333Y-52161904D01*
X106866666Y-52257142D01*
X107033333Y-52352380D01*
X107700000Y-52352380D01*
X105950000Y-53304761D02*
X105950000Y-51304761D01*
X105533333Y-51304761D01*
X105283333Y-51400000D01*
X105116666Y-51590476D01*
X105033333Y-51780952D01*
X104950000Y-52161904D01*
X104950000Y-52447619D01*
X105033333Y-52828571D01*
X105116666Y-53019047D01*
X105283333Y-53209523D01*
X105533333Y-53304761D01*
X105950000Y-53304761D01*
X104200000Y-53304761D02*
X104200000Y-51304761D01*
X103366666Y-53304761D02*
X103366666Y-51304761D01*
X102366666Y-53304761D01*
X102366666Y-51304761D01*
X100616666Y-51400000D02*
X100783333Y-51304761D01*
X101033333Y-51304761D01*
X101283333Y-51400000D01*
X101450000Y-51590476D01*
X101533333Y-51780952D01*
X101616666Y-52161904D01*
X101616666Y-52447619D01*
X101533333Y-52828571D01*
X101450000Y-53019047D01*
X101283333Y-53209523D01*
X101033333Y-53304761D01*
X100866666Y-53304761D01*
X100616666Y-53209523D01*
X100533333Y-53114285D01*
X100533333Y-52447619D01*
X100866666Y-52447619D01*
X98950000Y-53304761D02*
X99783333Y-53304761D01*
X99783333Y-51304761D01*
X98366666Y-52257142D02*
X97783333Y-52257142D01*
X97533333Y-53304761D02*
X98366666Y-53304761D01*
X98366666Y-51304761D01*
X97533333Y-51304761D01*
X96450000Y-52352380D02*
X96450000Y-53304761D01*
X97033333Y-51304761D02*
X96450000Y-52352380D01*
X95866666Y-51304761D01*
X131033333Y-50304761D02*
X131033333Y-48304761D01*
X130450000Y-49733333D01*
X129866666Y-48304761D01*
X129866666Y-50304761D01*
X129116666Y-49733333D02*
X128283333Y-49733333D01*
X129283333Y-50304761D02*
X128700000Y-48304761D01*
X128116666Y-50304761D01*
X127533333Y-50304761D02*
X127533333Y-48304761D01*
X126700000Y-50304761D02*
X126700000Y-48304761D01*
X125700000Y-50304761D01*
X125700000Y-48304761D01*
X124950000Y-50209523D02*
X124700000Y-50304761D01*
X124283333Y-50304761D01*
X124116666Y-50209523D01*
X124033333Y-50114285D01*
X123950000Y-49923809D01*
X123950000Y-49733333D01*
X124033333Y-49542857D01*
X124116666Y-49447619D01*
X124283333Y-49352380D01*
X124616666Y-49257142D01*
X124783333Y-49161904D01*
X124866666Y-49066666D01*
X124950000Y-48876190D01*
X124950000Y-48685714D01*
X124866666Y-48495238D01*
X124783333Y-48400000D01*
X124616666Y-48304761D01*
X124200000Y-48304761D01*
X123950000Y-48400000D01*
X121950000Y-50209523D02*
X121700000Y-50304761D01*
X121283333Y-50304761D01*
X121116666Y-50209523D01*
X121033333Y-50114285D01*
X120950000Y-49923809D01*
X120950000Y-49733333D01*
X121033333Y-49542857D01*
X121116666Y-49447619D01*
X121283333Y-49352380D01*
X121616666Y-49257142D01*
X121783333Y-49161904D01*
X121866666Y-49066666D01*
X121950000Y-48876190D01*
X121950000Y-48685714D01*
X121866666Y-48495238D01*
X121783333Y-48400000D01*
X121616666Y-48304761D01*
X121200000Y-48304761D01*
X120950000Y-48400000D01*
X119866666Y-48304761D02*
X119533333Y-48304761D01*
X119366666Y-48400000D01*
X119200000Y-48590476D01*
X119116666Y-48971428D01*
X119116666Y-49638095D01*
X119200000Y-50019047D01*
X119366666Y-50209523D01*
X119533333Y-50304761D01*
X119866666Y-50304761D01*
X120033333Y-50209523D01*
X120200000Y-50019047D01*
X120283333Y-49638095D01*
X120283333Y-48971428D01*
X120200000Y-48590476D01*
X120033333Y-48400000D01*
X119866666Y-48304761D01*
X118366666Y-48304761D02*
X118366666Y-49923809D01*
X118283333Y-50114285D01*
X118200000Y-50209523D01*
X118033333Y-50304761D01*
X117700000Y-50304761D01*
X117533333Y-50209523D01*
X117450000Y-50114285D01*
X117366666Y-49923809D01*
X117366666Y-48304761D01*
X115533333Y-50304761D02*
X116116666Y-49352380D01*
X116533333Y-50304761D02*
X116533333Y-48304761D01*
X115866666Y-48304761D01*
X115700000Y-48400000D01*
X115616666Y-48495238D01*
X115533333Y-48685714D01*
X115533333Y-48971428D01*
X115616666Y-49161904D01*
X115700000Y-49257142D01*
X115866666Y-49352380D01*
X116533333Y-49352380D01*
X113783333Y-50114285D02*
X113866666Y-50209523D01*
X114116666Y-50304761D01*
X114283333Y-50304761D01*
X114533333Y-50209523D01*
X114700000Y-50019047D01*
X114783333Y-49828571D01*
X114866666Y-49447619D01*
X114866666Y-49161904D01*
X114783333Y-48780952D01*
X114700000Y-48590476D01*
X114533333Y-48400000D01*
X114283333Y-48304761D01*
X114116666Y-48304761D01*
X113866666Y-48400000D01*
X113783333Y-48495238D01*
X113033333Y-49257142D02*
X112450000Y-49257142D01*
X112200000Y-50304761D02*
X113033333Y-50304761D01*
X113033333Y-48304761D01*
X112200000Y-48304761D01*
X109533333Y-49257142D02*
X109283333Y-49352380D01*
X109200000Y-49447619D01*
X109116666Y-49638095D01*
X109116666Y-49923809D01*
X109200000Y-50114285D01*
X109283333Y-50209523D01*
X109450000Y-50304761D01*
X110116666Y-50304761D01*
X110116666Y-48304761D01*
X109533333Y-48304761D01*
X109366666Y-48400000D01*
X109283333Y-48495238D01*
X109200000Y-48685714D01*
X109200000Y-48876190D01*
X109283333Y-49066666D01*
X109366666Y-49161904D01*
X109533333Y-49257142D01*
X110116666Y-49257142D01*
X108450000Y-49733333D02*
X107616666Y-49733333D01*
X108616666Y-50304761D02*
X108033333Y-48304761D01*
X107450000Y-50304761D01*
X106033333Y-50304761D02*
X106866666Y-50304761D01*
X106866666Y-48304761D01*
X105533333Y-49733333D02*
X104700000Y-49733333D01*
X105700000Y-50304761D02*
X105116666Y-48304761D01*
X104533333Y-50304761D01*
X103950000Y-50304761D02*
X103950000Y-48304761D01*
X102950000Y-50304761D01*
X102950000Y-48304761D01*
X101116666Y-50114285D02*
X101200000Y-50209523D01*
X101450000Y-50304761D01*
X101616666Y-50304761D01*
X101866666Y-50209523D01*
X102033333Y-50019047D01*
X102116666Y-49828571D01*
X102200000Y-49447619D01*
X102200000Y-49161904D01*
X102116666Y-48780952D01*
X102033333Y-48590476D01*
X101866666Y-48400000D01*
X101616666Y-48304761D01*
X101450000Y-48304761D01*
X101200000Y-48400000D01*
X101116666Y-48495238D01*
X100366666Y-49257142D02*
X99783333Y-49257142D01*
X99533333Y-50304761D02*
X100366666Y-50304761D01*
X100366666Y-48304761D01*
X99533333Y-48304761D01*
X97783333Y-50304761D02*
X98366666Y-49352380D01*
X98783333Y-50304761D02*
X98783333Y-48304761D01*
X98116666Y-48304761D01*
X97950000Y-48400000D01*
X97866666Y-48495238D01*
X97783333Y-48685714D01*
X97783333Y-48971428D01*
X97866666Y-49161904D01*
X97950000Y-49257142D01*
X98116666Y-49352380D01*
X98783333Y-49352380D01*
M02*
