%TF.GenerationSoftware,KiCad,Pcbnew,5.1.7-a382d34a8~87~ubuntu18.04.1*%
%TF.CreationDate,2021-12-24T14:38:43-05:00*%
%TF.ProjectId,Source_Balancer_SMD,536f7572-6365-45f4-9261-6c616e636572,rev?*%
%TF.SameCoordinates,Original*%
%TF.FileFunction,Copper,L2,Bot*%
%TF.FilePolarity,Positive*%
%FSLAX46Y46*%
G04 Gerber Fmt 4.6, Leading zero omitted, Abs format (unit mm)*
G04 Created by KiCad (PCBNEW 5.1.7-a382d34a8~87~ubuntu18.04.1) date 2021-12-24 14:38:43*
%MOMM*%
%LPD*%
G01*
G04 APERTURE LIST*
%TA.AperFunction,ComponentPad*%
%ADD10O,1.700000X2.000000*%
%TD*%
%TA.AperFunction,ComponentPad*%
%ADD11C,1.800000*%
%TD*%
%TA.AperFunction,ComponentPad*%
%ADD12O,2.400000X2.400000*%
%TD*%
%TA.AperFunction,ComponentPad*%
%ADD13C,2.400000*%
%TD*%
%TA.AperFunction,ComponentPad*%
%ADD14C,0.900000*%
%TD*%
%TA.AperFunction,ComponentPad*%
%ADD15C,10.600000*%
%TD*%
%TA.AperFunction,ViaPad*%
%ADD16C,0.800000*%
%TD*%
%TA.AperFunction,Conductor*%
%ADD17C,0.500000*%
%TD*%
%TA.AperFunction,Conductor*%
%ADD18C,0.350000*%
%TD*%
%TA.AperFunction,Conductor*%
%ADD19C,1.500000*%
%TD*%
%TA.AperFunction,Conductor*%
%ADD20C,0.250000*%
%TD*%
%TA.AperFunction,Conductor*%
%ADD21C,0.254000*%
%TD*%
%TA.AperFunction,Conductor*%
%ADD22C,0.100000*%
%TD*%
G04 APERTURE END LIST*
D10*
%TO.P,J5,2*%
%TO.N,Net-(J5-Pad2)*%
X123750000Y-45500000D03*
%TO.P,J5,1*%
%TO.N,GND*%
%TA.AperFunction,ComponentPad*%
G36*
G01*
X127100000Y-44750000D02*
X127100000Y-46250000D01*
G75*
G02*
X126850000Y-46500000I-250000J0D01*
G01*
X125650000Y-46500000D01*
G75*
G02*
X125400000Y-46250000I0J250000D01*
G01*
X125400000Y-44750000D01*
G75*
G02*
X125650000Y-44500000I250000J0D01*
G01*
X126850000Y-44500000D01*
G75*
G02*
X127100000Y-44750000I0J-250000D01*
G01*
G37*
%TD.AperFunction*%
%TD*%
D11*
%TO.P,RV2,2*%
%TO.N,NEUT*%
X107000000Y-89800000D03*
%TO.P,RV2,1*%
%TO.N,/LIVE_B*%
X99500000Y-88000000D03*
%TD*%
%TO.P,RV1,2*%
%TO.N,NEUT*%
X102500000Y-42300000D03*
%TO.P,RV1,1*%
%TO.N,/LIVE_A*%
X95000000Y-40500000D03*
%TD*%
D12*
%TO.P,R6,2*%
%TO.N,NEUT*%
X116700000Y-89150000D03*
D13*
%TO.P,R6,1*%
%TO.N,Net-(C1-Pad1)*%
X116700000Y-73910000D03*
%TD*%
D14*
%TO.P,J4,1*%
%TO.N,/LIVE_OUT*%
X67810749Y-62189251D03*
X65000000Y-61025000D03*
X62189251Y-62189251D03*
X61025000Y-65000000D03*
X62189251Y-67810749D03*
X65000000Y-68975000D03*
X67810749Y-67810749D03*
X68975000Y-65000000D03*
D15*
X65000000Y-65000000D03*
%TD*%
D14*
%TO.P,J3,1*%
%TO.N,/LIVE_B*%
X67810749Y-82189251D03*
X65000000Y-81025000D03*
X62189251Y-82189251D03*
X61025000Y-85000000D03*
X62189251Y-87810749D03*
X65000000Y-88975000D03*
X67810749Y-87810749D03*
X68975000Y-85000000D03*
D15*
X65000000Y-85000000D03*
%TD*%
D14*
%TO.P,J2,1*%
%TO.N,/LIVE_A*%
X67810749Y-42189251D03*
X65000000Y-41025000D03*
X62189251Y-42189251D03*
X61025000Y-45000000D03*
X62189251Y-47810749D03*
X65000000Y-48975000D03*
X67810749Y-47810749D03*
X68975000Y-45000000D03*
D15*
X65000000Y-45000000D03*
%TD*%
D14*
%TO.P,J1,1*%
%TO.N,NEUT*%
X130810749Y-82689251D03*
X128000000Y-81525000D03*
X125189251Y-82689251D03*
X124025000Y-85500000D03*
X125189251Y-88310749D03*
X128000000Y-89475000D03*
X130810749Y-88310749D03*
X131975000Y-85500000D03*
D15*
X128000000Y-85500000D03*
%TD*%
D13*
%TO.P,C1,2*%
%TO.N,Net-(C1-Pad2)*%
X125300000Y-58900000D03*
%TO.P,C1,1*%
%TO.N,Net-(C1-Pad1)*%
X125300000Y-73900000D03*
%TD*%
D16*
%TO.N,GND*%
X111500000Y-54200000D03*
X104100000Y-49200000D03*
X106600000Y-55500000D03*
X104600000Y-72750000D03*
X110150000Y-71100000D03*
X115500000Y-57150000D03*
X107000000Y-74750000D03*
X104500000Y-80950000D03*
X100850000Y-72500000D03*
X99000000Y-49950000D03*
X112950000Y-67250000D03*
X75650000Y-54500000D03*
X96500000Y-49100000D03*
X100950000Y-82450000D03*
X107850000Y-46600000D03*
X107850000Y-45700000D03*
X125300000Y-48400000D03*
X89250000Y-56400000D03*
X90250000Y-56400000D03*
X89250000Y-53700000D03*
X90250000Y-53700000D03*
X75650000Y-55600000D03*
X117900000Y-67550000D03*
%TO.N,+15V*%
X109250000Y-63750000D03*
X106200000Y-60700000D03*
%TO.N,Net-(C6-Pad1)*%
X98750000Y-75000000D03*
X85250000Y-73600000D03*
X85250000Y-74950000D03*
X86250000Y-74950000D03*
X86250000Y-73600000D03*
X72350000Y-74900000D03*
%TO.N,Net-(D5-Pad1)*%
X81300000Y-55000000D03*
X93250000Y-55000000D03*
%TO.N,Net-(D8-Pad1)*%
X80925000Y-74875000D03*
X98925000Y-80625000D03*
%TO.N,/LIVE_A*%
X90000000Y-44000000D03*
X87000000Y-46000000D03*
X81000000Y-42000000D03*
X84000000Y-44000000D03*
X84000000Y-46000000D03*
X90000000Y-46000000D03*
X87000000Y-42000000D03*
X87000000Y-44000000D03*
X81000000Y-44000000D03*
X84000000Y-42000000D03*
X81000000Y-46000000D03*
X90000000Y-42000000D03*
X87000000Y-48000000D03*
X90000000Y-48000000D03*
X84000000Y-48000000D03*
X81000000Y-48000000D03*
%TO.N,/LIVE_B*%
X94500000Y-84000000D03*
X91500000Y-86000000D03*
X85500000Y-82000000D03*
X88500000Y-84000000D03*
X88500000Y-86000000D03*
X94500000Y-86000000D03*
X91500000Y-82000000D03*
X91500000Y-84000000D03*
X85500000Y-84000000D03*
X88500000Y-82000000D03*
X85500000Y-86000000D03*
X94500000Y-82000000D03*
X91500000Y-88000000D03*
X94500000Y-88000000D03*
X88500000Y-88000000D03*
X85500000Y-88000000D03*
%TO.N,/LIVE_OUT*%
X86000000Y-64000000D03*
X83000000Y-66000000D03*
X77000000Y-62000000D03*
X80000000Y-64000000D03*
X80000000Y-66000000D03*
X86000000Y-66000000D03*
X83000000Y-62000000D03*
X83000000Y-64000000D03*
X77000000Y-64000000D03*
X80000000Y-62000000D03*
X77000000Y-66000000D03*
X86000000Y-62000000D03*
X83000000Y-68000000D03*
X86000000Y-68000000D03*
X80000000Y-68000000D03*
X77000000Y-68000000D03*
X95500000Y-68000000D03*
X92500000Y-68000000D03*
X98500000Y-68000000D03*
X89500000Y-68000000D03*
X98500000Y-64000000D03*
X95500000Y-66000000D03*
X89500000Y-62000000D03*
X92500000Y-64000000D03*
X92500000Y-66000000D03*
X98500000Y-66000000D03*
X95500000Y-62000000D03*
X95500000Y-64000000D03*
X89500000Y-64000000D03*
X92500000Y-62000000D03*
X89500000Y-66000000D03*
X98500000Y-62000000D03*
%TO.N,/A_EN*%
X108650000Y-56600000D03*
X110900000Y-58850000D03*
%TD*%
D17*
%TO.N,+15V*%
X109250000Y-63750000D02*
X106200000Y-60700000D01*
%TO.N,Net-(C6-Pad1)*%
X79100000Y-73600000D02*
X85250000Y-73600000D01*
X77800000Y-74900000D02*
X79100000Y-73600000D01*
X72350000Y-74900000D02*
X77800000Y-74900000D01*
%TO.N,Net-(D5-Pad1)*%
X81300000Y-55000000D02*
X93250000Y-55000000D01*
X93250000Y-55000000D02*
X93250000Y-55000000D01*
D18*
%TO.N,Net-(D8-Pad1)*%
X98925000Y-77225000D02*
X98925000Y-80625000D01*
X98150000Y-76450000D02*
X98925000Y-77225000D01*
X84500000Y-76450000D02*
X98150000Y-76450000D01*
X82925000Y-74875000D02*
X84500000Y-76450000D01*
X80925000Y-74875000D02*
X82925000Y-74875000D01*
D19*
%TO.N,NEUT*%
X107000000Y-89800000D02*
X110350000Y-89800000D01*
X111000000Y-89150000D02*
X115400000Y-89150000D01*
X110350000Y-89800000D02*
X111000000Y-89150000D01*
X124350000Y-89150000D02*
X128000000Y-85500000D01*
X115400000Y-89150000D02*
X124350000Y-89150000D01*
X132500000Y-81000000D02*
X128000000Y-85500000D01*
X132500000Y-41500000D02*
X132500000Y-81000000D01*
X131000000Y-40000000D02*
X132500000Y-41500000D01*
X104800000Y-40000000D02*
X131000000Y-40000000D01*
X102500000Y-42300000D02*
X104800000Y-40000000D01*
D20*
%TO.N,/A_EN*%
X108650000Y-56600000D02*
X110900000Y-58850000D01*
%TD*%
D21*
%TO.N,/LIVE_OUT*%
X74410197Y-60589803D02*
X74429443Y-60605597D01*
X74451399Y-60617333D01*
X74475224Y-60624560D01*
X74500000Y-60627000D01*
X99373000Y-60627000D01*
X99373000Y-69373000D01*
X74500000Y-69373000D01*
X74475224Y-69375440D01*
X74451399Y-69382667D01*
X74429443Y-69394403D01*
X74410197Y-69410197D01*
X71947394Y-71873000D01*
X59660000Y-71873000D01*
X59660000Y-58127000D01*
X71947394Y-58127000D01*
X74410197Y-60589803D01*
%TA.AperFunction,Conductor*%
D22*
G36*
X74410197Y-60589803D02*
G01*
X74429443Y-60605597D01*
X74451399Y-60617333D01*
X74475224Y-60624560D01*
X74500000Y-60627000D01*
X99373000Y-60627000D01*
X99373000Y-69373000D01*
X74500000Y-69373000D01*
X74475224Y-69375440D01*
X74451399Y-69382667D01*
X74429443Y-69394403D01*
X74410197Y-69410197D01*
X71947394Y-71873000D01*
X59660000Y-71873000D01*
X59660000Y-58127000D01*
X71947394Y-58127000D01*
X74410197Y-60589803D01*
G37*
%TD.AperFunction*%
%TD*%
D21*
%TO.N,/LIVE_A*%
X94476346Y-39219255D02*
X94236547Y-39346024D01*
X94226026Y-39353054D01*
X94140510Y-39572628D01*
X95000000Y-40432118D01*
X95859490Y-39572628D01*
X95773974Y-39353054D01*
X95535344Y-39224097D01*
X95327470Y-39160000D01*
X96373000Y-39160000D01*
X96373000Y-40392907D01*
X96358296Y-40236269D01*
X96280745Y-39976346D01*
X96153976Y-39736547D01*
X96146946Y-39726026D01*
X95927372Y-39640510D01*
X95067882Y-40500000D01*
X95927372Y-41359490D01*
X96146946Y-41273974D01*
X96275903Y-41035344D01*
X96355827Y-40776141D01*
X96373000Y-40609587D01*
X96373000Y-42873000D01*
X91000000Y-42873000D01*
X90975224Y-42875440D01*
X90951399Y-42882667D01*
X90929443Y-42894403D01*
X90910197Y-42910197D01*
X90894403Y-42929443D01*
X90882667Y-42951399D01*
X90875440Y-42975224D01*
X90873000Y-43000000D01*
X90873000Y-49873000D01*
X74000000Y-49873000D01*
X73975224Y-49875440D01*
X73951399Y-49882667D01*
X73929443Y-49894403D01*
X73910197Y-49910197D01*
X71947394Y-51873000D01*
X59660000Y-51873000D01*
X59660000Y-41427372D01*
X94140510Y-41427372D01*
X94226026Y-41646946D01*
X94464656Y-41775903D01*
X94723859Y-41855827D01*
X94993674Y-41883647D01*
X95263731Y-41858296D01*
X95523654Y-41780745D01*
X95763453Y-41653976D01*
X95773974Y-41646946D01*
X95859490Y-41427372D01*
X95000000Y-40567882D01*
X94140510Y-41427372D01*
X59660000Y-41427372D01*
X59660000Y-40493674D01*
X93616353Y-40493674D01*
X93641704Y-40763731D01*
X93719255Y-41023654D01*
X93846024Y-41263453D01*
X93853054Y-41273974D01*
X94072628Y-41359490D01*
X94932118Y-40500000D01*
X94072628Y-39640510D01*
X93853054Y-39726026D01*
X93724097Y-39964656D01*
X93644173Y-40223859D01*
X93616353Y-40493674D01*
X59660000Y-40493674D01*
X59660000Y-39532279D01*
X59669580Y-39434576D01*
X59688580Y-39371644D01*
X59719445Y-39313595D01*
X59760989Y-39262657D01*
X59811644Y-39220752D01*
X59869471Y-39189485D01*
X59932272Y-39170044D01*
X60027835Y-39160000D01*
X94674947Y-39160000D01*
X94476346Y-39219255D01*
%TA.AperFunction,Conductor*%
D22*
G36*
X94476346Y-39219255D02*
G01*
X94236547Y-39346024D01*
X94226026Y-39353054D01*
X94140510Y-39572628D01*
X95000000Y-40432118D01*
X95859490Y-39572628D01*
X95773974Y-39353054D01*
X95535344Y-39224097D01*
X95327470Y-39160000D01*
X96373000Y-39160000D01*
X96373000Y-40392907D01*
X96358296Y-40236269D01*
X96280745Y-39976346D01*
X96153976Y-39736547D01*
X96146946Y-39726026D01*
X95927372Y-39640510D01*
X95067882Y-40500000D01*
X95927372Y-41359490D01*
X96146946Y-41273974D01*
X96275903Y-41035344D01*
X96355827Y-40776141D01*
X96373000Y-40609587D01*
X96373000Y-42873000D01*
X91000000Y-42873000D01*
X90975224Y-42875440D01*
X90951399Y-42882667D01*
X90929443Y-42894403D01*
X90910197Y-42910197D01*
X90894403Y-42929443D01*
X90882667Y-42951399D01*
X90875440Y-42975224D01*
X90873000Y-43000000D01*
X90873000Y-49873000D01*
X74000000Y-49873000D01*
X73975224Y-49875440D01*
X73951399Y-49882667D01*
X73929443Y-49894403D01*
X73910197Y-49910197D01*
X71947394Y-51873000D01*
X59660000Y-51873000D01*
X59660000Y-41427372D01*
X94140510Y-41427372D01*
X94226026Y-41646946D01*
X94464656Y-41775903D01*
X94723859Y-41855827D01*
X94993674Y-41883647D01*
X95263731Y-41858296D01*
X95523654Y-41780745D01*
X95763453Y-41653976D01*
X95773974Y-41646946D01*
X95859490Y-41427372D01*
X95000000Y-40567882D01*
X94140510Y-41427372D01*
X59660000Y-41427372D01*
X59660000Y-40493674D01*
X93616353Y-40493674D01*
X93641704Y-40763731D01*
X93719255Y-41023654D01*
X93846024Y-41263453D01*
X93853054Y-41273974D01*
X94072628Y-41359490D01*
X94932118Y-40500000D01*
X94072628Y-39640510D01*
X93853054Y-39726026D01*
X93724097Y-39964656D01*
X93644173Y-40223859D01*
X93616353Y-40493674D01*
X59660000Y-40493674D01*
X59660000Y-39532279D01*
X59669580Y-39434576D01*
X59688580Y-39371644D01*
X59719445Y-39313595D01*
X59760989Y-39262657D01*
X59811644Y-39220752D01*
X59869471Y-39189485D01*
X59932272Y-39170044D01*
X60027835Y-39160000D01*
X94674947Y-39160000D01*
X94476346Y-39219255D01*
G37*
%TD.AperFunction*%
%TD*%
D21*
%TO.N,/LIVE_B*%
X73910197Y-80089803D02*
X73929443Y-80105597D01*
X73951399Y-80117333D01*
X73975224Y-80124560D01*
X74000000Y-80127000D01*
X95373000Y-80127000D01*
X95373000Y-86500000D01*
X95375440Y-86524776D01*
X95382667Y-86548601D01*
X95394403Y-86570557D01*
X95410197Y-86589803D01*
X95429443Y-86605597D01*
X95451399Y-86617333D01*
X95475224Y-86624560D01*
X95500000Y-86627000D01*
X99392907Y-86627000D01*
X99236269Y-86641704D01*
X98976346Y-86719255D01*
X98736547Y-86846024D01*
X98726026Y-86853054D01*
X98640510Y-87072628D01*
X99500000Y-87932118D01*
X100359490Y-87072628D01*
X100273974Y-86853054D01*
X100035344Y-86724097D01*
X99776141Y-86644173D01*
X99609587Y-86627000D01*
X100873000Y-86627000D01*
X100873000Y-87892907D01*
X100858296Y-87736269D01*
X100780745Y-87476346D01*
X100653976Y-87236547D01*
X100646946Y-87226026D01*
X100427372Y-87140510D01*
X99567882Y-88000000D01*
X100427372Y-88859490D01*
X100646946Y-88773974D01*
X100775903Y-88535344D01*
X100855827Y-88276141D01*
X100873000Y-88109587D01*
X100873000Y-90840000D01*
X60032279Y-90840000D01*
X59934576Y-90830420D01*
X59871643Y-90811420D01*
X59813594Y-90780554D01*
X59762657Y-90739011D01*
X59720752Y-90688356D01*
X59689485Y-90630529D01*
X59670044Y-90567728D01*
X59660000Y-90472165D01*
X59660000Y-88927372D01*
X98640510Y-88927372D01*
X98726026Y-89146946D01*
X98964656Y-89275903D01*
X99223859Y-89355827D01*
X99493674Y-89383647D01*
X99763731Y-89358296D01*
X100023654Y-89280745D01*
X100263453Y-89153976D01*
X100273974Y-89146946D01*
X100359490Y-88927372D01*
X99500000Y-88067882D01*
X98640510Y-88927372D01*
X59660000Y-88927372D01*
X59660000Y-87993674D01*
X98116353Y-87993674D01*
X98141704Y-88263731D01*
X98219255Y-88523654D01*
X98346024Y-88763453D01*
X98353054Y-88773974D01*
X98572628Y-88859490D01*
X99432118Y-88000000D01*
X98572628Y-87140510D01*
X98353054Y-87226026D01*
X98224097Y-87464656D01*
X98144173Y-87723859D01*
X98116353Y-87993674D01*
X59660000Y-87993674D01*
X59660000Y-78127000D01*
X71947394Y-78127000D01*
X73910197Y-80089803D01*
%TA.AperFunction,Conductor*%
D22*
G36*
X73910197Y-80089803D02*
G01*
X73929443Y-80105597D01*
X73951399Y-80117333D01*
X73975224Y-80124560D01*
X74000000Y-80127000D01*
X95373000Y-80127000D01*
X95373000Y-86500000D01*
X95375440Y-86524776D01*
X95382667Y-86548601D01*
X95394403Y-86570557D01*
X95410197Y-86589803D01*
X95429443Y-86605597D01*
X95451399Y-86617333D01*
X95475224Y-86624560D01*
X95500000Y-86627000D01*
X99392907Y-86627000D01*
X99236269Y-86641704D01*
X98976346Y-86719255D01*
X98736547Y-86846024D01*
X98726026Y-86853054D01*
X98640510Y-87072628D01*
X99500000Y-87932118D01*
X100359490Y-87072628D01*
X100273974Y-86853054D01*
X100035344Y-86724097D01*
X99776141Y-86644173D01*
X99609587Y-86627000D01*
X100873000Y-86627000D01*
X100873000Y-87892907D01*
X100858296Y-87736269D01*
X100780745Y-87476346D01*
X100653976Y-87236547D01*
X100646946Y-87226026D01*
X100427372Y-87140510D01*
X99567882Y-88000000D01*
X100427372Y-88859490D01*
X100646946Y-88773974D01*
X100775903Y-88535344D01*
X100855827Y-88276141D01*
X100873000Y-88109587D01*
X100873000Y-90840000D01*
X60032279Y-90840000D01*
X59934576Y-90830420D01*
X59871643Y-90811420D01*
X59813594Y-90780554D01*
X59762657Y-90739011D01*
X59720752Y-90688356D01*
X59689485Y-90630529D01*
X59670044Y-90567728D01*
X59660000Y-90472165D01*
X59660000Y-88927372D01*
X98640510Y-88927372D01*
X98726026Y-89146946D01*
X98964656Y-89275903D01*
X99223859Y-89355827D01*
X99493674Y-89383647D01*
X99763731Y-89358296D01*
X100023654Y-89280745D01*
X100263453Y-89153976D01*
X100273974Y-89146946D01*
X100359490Y-88927372D01*
X99500000Y-88067882D01*
X98640510Y-88927372D01*
X59660000Y-88927372D01*
X59660000Y-87993674D01*
X98116353Y-87993674D01*
X98141704Y-88263731D01*
X98219255Y-88523654D01*
X98346024Y-88763453D01*
X98353054Y-88773974D01*
X98572628Y-88859490D01*
X99432118Y-88000000D01*
X98572628Y-87140510D01*
X98353054Y-87226026D01*
X98224097Y-87464656D01*
X98144173Y-87723859D01*
X98116353Y-87993674D01*
X59660000Y-87993674D01*
X59660000Y-78127000D01*
X71947394Y-78127000D01*
X73910197Y-80089803D01*
G37*
%TD.AperFunction*%
%TD*%
D21*
%TO.N,NEUT*%
X133340001Y-90467711D02*
X133330420Y-90565424D01*
X133311420Y-90628357D01*
X133280554Y-90686406D01*
X133239011Y-90737343D01*
X133188356Y-90779248D01*
X133130529Y-90810515D01*
X133067728Y-90829956D01*
X132972165Y-90840000D01*
X120627000Y-90840000D01*
X120627000Y-78627000D01*
X133340001Y-78627000D01*
X133340001Y-90467711D01*
%TA.AperFunction,Conductor*%
D22*
G36*
X133340001Y-90467711D02*
G01*
X133330420Y-90565424D01*
X133311420Y-90628357D01*
X133280554Y-90686406D01*
X133239011Y-90737343D01*
X133188356Y-90779248D01*
X133130529Y-90810515D01*
X133067728Y-90829956D01*
X132972165Y-90840000D01*
X120627000Y-90840000D01*
X120627000Y-78627000D01*
X133340001Y-78627000D01*
X133340001Y-90467711D01*
G37*
%TD.AperFunction*%
%TD*%
D21*
%TO.N,GND*%
X122371401Y-44778966D02*
X122286487Y-45058889D01*
X122265000Y-45277050D01*
X122265000Y-45722949D01*
X122286487Y-45941110D01*
X122371401Y-46221033D01*
X122509294Y-46479013D01*
X122694866Y-46705134D01*
X122920986Y-46890706D01*
X123178966Y-47028599D01*
X123458889Y-47113513D01*
X123750000Y-47142185D01*
X124041110Y-47113513D01*
X124321033Y-47028599D01*
X124579013Y-46890706D01*
X124805134Y-46705134D01*
X124926349Y-46557433D01*
X124929902Y-46593508D01*
X124957177Y-46683423D01*
X125001470Y-46766289D01*
X125061078Y-46838922D01*
X125133711Y-46898530D01*
X125216577Y-46942823D01*
X125306492Y-46970098D01*
X125400000Y-46979308D01*
X126082750Y-46977000D01*
X126202000Y-46857750D01*
X126202000Y-45548000D01*
X126182000Y-45548000D01*
X126182000Y-45452000D01*
X126202000Y-45452000D01*
X126202000Y-45432000D01*
X126298000Y-45432000D01*
X126298000Y-45452000D01*
X126318000Y-45452000D01*
X126318000Y-45548000D01*
X126298000Y-45548000D01*
X126298000Y-46857750D01*
X126417250Y-46977000D01*
X127100000Y-46979308D01*
X127193508Y-46970098D01*
X127283423Y-46942823D01*
X127366289Y-46898530D01*
X127438922Y-46838922D01*
X127473000Y-46797398D01*
X127473000Y-60373000D01*
X126398413Y-60373000D01*
X126469744Y-60325338D01*
X126725338Y-60069744D01*
X126926156Y-59769199D01*
X127064482Y-59435250D01*
X127135000Y-59080732D01*
X127135000Y-58719268D01*
X127064482Y-58364750D01*
X126926156Y-58030801D01*
X126725338Y-57730256D01*
X126469744Y-57474662D01*
X126169199Y-57273844D01*
X125835250Y-57135518D01*
X125480732Y-57065000D01*
X125119268Y-57065000D01*
X124764750Y-57135518D01*
X124430801Y-57273844D01*
X124130256Y-57474662D01*
X123874662Y-57730256D01*
X123673844Y-58030801D01*
X123535518Y-58364750D01*
X123465000Y-58719268D01*
X123465000Y-59080732D01*
X123535518Y-59435250D01*
X123673844Y-59769199D01*
X123874662Y-60069744D01*
X124130256Y-60325338D01*
X124201587Y-60373000D01*
X120000000Y-60373000D01*
X119975224Y-60375440D01*
X119951399Y-60382667D01*
X119929443Y-60394403D01*
X119910197Y-60410197D01*
X119894403Y-60429443D01*
X119882667Y-60451399D01*
X119875440Y-60475224D01*
X119873000Y-60500000D01*
X119873000Y-68673000D01*
X111100000Y-68673000D01*
X111075224Y-68675440D01*
X111051399Y-68682667D01*
X111029443Y-68694403D01*
X111010197Y-68710197D01*
X110994403Y-68729443D01*
X110982667Y-68751399D01*
X110975440Y-68775224D01*
X110973000Y-68800000D01*
X110973000Y-77573000D01*
X106300000Y-77573000D01*
X106275224Y-77575440D01*
X106251399Y-77582667D01*
X106229443Y-77594403D01*
X106210197Y-77610197D01*
X106194403Y-77629443D01*
X106182667Y-77651399D01*
X106175440Y-77675224D01*
X106173000Y-77700000D01*
X106173000Y-82973000D01*
X98177000Y-82973000D01*
X98177000Y-81340711D01*
X98265226Y-81428937D01*
X98434744Y-81542205D01*
X98623102Y-81620226D01*
X98823061Y-81660000D01*
X99026939Y-81660000D01*
X99226898Y-81620226D01*
X99415256Y-81542205D01*
X99584774Y-81428937D01*
X99728937Y-81284774D01*
X99842205Y-81115256D01*
X99920226Y-80926898D01*
X99960000Y-80726939D01*
X99960000Y-80523061D01*
X99920226Y-80323102D01*
X99842205Y-80134744D01*
X99735000Y-79974300D01*
X99735000Y-77264791D01*
X99738919Y-77225000D01*
X99723432Y-77067758D01*
X99736664Y-77043004D01*
X99772799Y-76923882D01*
X99785000Y-76800000D01*
X99785000Y-73150000D01*
X99772799Y-73026118D01*
X99736664Y-72906996D01*
X99677983Y-72797213D01*
X99599013Y-72700987D01*
X99502787Y-72622017D01*
X99393004Y-72563336D01*
X99273882Y-72527201D01*
X99150000Y-72515000D01*
X98177000Y-72515000D01*
X98177000Y-72227000D01*
X102100000Y-72227000D01*
X102124776Y-72224560D01*
X102148601Y-72217333D01*
X102170557Y-72205597D01*
X102189803Y-72189803D01*
X102205597Y-72170557D01*
X102217333Y-72148601D01*
X102224560Y-72124776D01*
X102227000Y-72100000D01*
X102227000Y-60598061D01*
X105165000Y-60598061D01*
X105165000Y-60801939D01*
X105204774Y-61001898D01*
X105282795Y-61190256D01*
X105396063Y-61359774D01*
X105540226Y-61503937D01*
X105709744Y-61617205D01*
X105898102Y-61695226D01*
X105954957Y-61706535D01*
X108243465Y-63995044D01*
X108254774Y-64051898D01*
X108332795Y-64240256D01*
X108446063Y-64409774D01*
X108590226Y-64553937D01*
X108759744Y-64667205D01*
X108948102Y-64745226D01*
X109148061Y-64785000D01*
X109351939Y-64785000D01*
X109551898Y-64745226D01*
X109740256Y-64667205D01*
X109909774Y-64553937D01*
X110053937Y-64409774D01*
X110167205Y-64240256D01*
X110245226Y-64051898D01*
X110285000Y-63851939D01*
X110285000Y-63648061D01*
X110245226Y-63448102D01*
X110167205Y-63259744D01*
X110053937Y-63090226D01*
X109909774Y-62946063D01*
X109740256Y-62832795D01*
X109551898Y-62754774D01*
X109495044Y-62743465D01*
X107206535Y-60454957D01*
X107195226Y-60398102D01*
X107117205Y-60209744D01*
X107003937Y-60040226D01*
X106859774Y-59896063D01*
X106690256Y-59782795D01*
X106501898Y-59704774D01*
X106301939Y-59665000D01*
X106098061Y-59665000D01*
X105898102Y-59704774D01*
X105709744Y-59782795D01*
X105540226Y-59896063D01*
X105396063Y-60040226D01*
X105282795Y-60209744D01*
X105204774Y-60398102D01*
X105165000Y-60598061D01*
X102227000Y-60598061D01*
X102227000Y-57000000D01*
X102224560Y-56975224D01*
X102217333Y-56951399D01*
X102205597Y-56929443D01*
X102189803Y-56910197D01*
X102170557Y-56894403D01*
X102148601Y-56882667D01*
X102124776Y-56875440D01*
X102100000Y-56873000D01*
X76252606Y-56873000D01*
X75877667Y-56498061D01*
X107615000Y-56498061D01*
X107615000Y-56701939D01*
X107654774Y-56901898D01*
X107732795Y-57090256D01*
X107846063Y-57259774D01*
X107990226Y-57403937D01*
X108159744Y-57517205D01*
X108348102Y-57595226D01*
X108548061Y-57635000D01*
X108610199Y-57635000D01*
X109865000Y-58889802D01*
X109865000Y-58951939D01*
X109904774Y-59151898D01*
X109982795Y-59340256D01*
X110096063Y-59509774D01*
X110240226Y-59653937D01*
X110409744Y-59767205D01*
X110598102Y-59845226D01*
X110798061Y-59885000D01*
X111001939Y-59885000D01*
X111201898Y-59845226D01*
X111390256Y-59767205D01*
X111559774Y-59653937D01*
X111703937Y-59509774D01*
X111817205Y-59340256D01*
X111895226Y-59151898D01*
X111935000Y-58951939D01*
X111935000Y-58748061D01*
X111895226Y-58548102D01*
X111817205Y-58359744D01*
X111703937Y-58190226D01*
X111559774Y-58046063D01*
X111390256Y-57932795D01*
X111201898Y-57854774D01*
X111001939Y-57815000D01*
X110939802Y-57815000D01*
X109685000Y-56560199D01*
X109685000Y-56498061D01*
X109645226Y-56298102D01*
X109567205Y-56109744D01*
X109453937Y-55940226D01*
X109309774Y-55796063D01*
X109140256Y-55682795D01*
X108951898Y-55604774D01*
X108751939Y-55565000D01*
X108548061Y-55565000D01*
X108348102Y-55604774D01*
X108159744Y-55682795D01*
X107990226Y-55796063D01*
X107846063Y-55940226D01*
X107732795Y-56109744D01*
X107654774Y-56298102D01*
X107615000Y-56498061D01*
X75877667Y-56498061D01*
X75227000Y-55847394D01*
X75227000Y-54898061D01*
X80265000Y-54898061D01*
X80265000Y-55101939D01*
X80304774Y-55301898D01*
X80382795Y-55490256D01*
X80496063Y-55659774D01*
X80640226Y-55803937D01*
X80809744Y-55917205D01*
X80998102Y-55995226D01*
X81198061Y-56035000D01*
X81401939Y-56035000D01*
X81601898Y-55995226D01*
X81790256Y-55917205D01*
X81838454Y-55885000D01*
X92711546Y-55885000D01*
X92759744Y-55917205D01*
X92948102Y-55995226D01*
X93148061Y-56035000D01*
X93351939Y-56035000D01*
X93551898Y-55995226D01*
X93740256Y-55917205D01*
X93909774Y-55803937D01*
X94053937Y-55659774D01*
X94167205Y-55490256D01*
X94245226Y-55301898D01*
X94285000Y-55101939D01*
X94285000Y-54898061D01*
X94245226Y-54698102D01*
X94167205Y-54509744D01*
X94053937Y-54340226D01*
X93909774Y-54196063D01*
X93740256Y-54082795D01*
X93551898Y-54004774D01*
X93351939Y-53965000D01*
X93148061Y-53965000D01*
X92948102Y-54004774D01*
X92759744Y-54082795D01*
X92711546Y-54115000D01*
X81838454Y-54115000D01*
X81790256Y-54082795D01*
X81601898Y-54004774D01*
X81401939Y-53965000D01*
X81198061Y-53965000D01*
X80998102Y-54004774D01*
X80809744Y-54082795D01*
X80640226Y-54196063D01*
X80496063Y-54340226D01*
X80382795Y-54509744D01*
X80304774Y-54698102D01*
X80265000Y-54898061D01*
X75227000Y-54898061D01*
X75227000Y-54352606D01*
X76252606Y-53327000D01*
X94800000Y-53327000D01*
X94824776Y-53324560D01*
X94848601Y-53317333D01*
X94870557Y-53305597D01*
X94889803Y-53289803D01*
X94905597Y-53270557D01*
X94917333Y-53248601D01*
X94924560Y-53224776D01*
X94927000Y-53200000D01*
X94927000Y-47127000D01*
X106000000Y-47127000D01*
X106024776Y-47124560D01*
X106048601Y-47117333D01*
X106070557Y-47105597D01*
X106089803Y-47089803D01*
X108552606Y-44627000D01*
X122452628Y-44627000D01*
X122371401Y-44778966D01*
%TA.AperFunction,Conductor*%
D22*
G36*
X122371401Y-44778966D02*
G01*
X122286487Y-45058889D01*
X122265000Y-45277050D01*
X122265000Y-45722949D01*
X122286487Y-45941110D01*
X122371401Y-46221033D01*
X122509294Y-46479013D01*
X122694866Y-46705134D01*
X122920986Y-46890706D01*
X123178966Y-47028599D01*
X123458889Y-47113513D01*
X123750000Y-47142185D01*
X124041110Y-47113513D01*
X124321033Y-47028599D01*
X124579013Y-46890706D01*
X124805134Y-46705134D01*
X124926349Y-46557433D01*
X124929902Y-46593508D01*
X124957177Y-46683423D01*
X125001470Y-46766289D01*
X125061078Y-46838922D01*
X125133711Y-46898530D01*
X125216577Y-46942823D01*
X125306492Y-46970098D01*
X125400000Y-46979308D01*
X126082750Y-46977000D01*
X126202000Y-46857750D01*
X126202000Y-45548000D01*
X126182000Y-45548000D01*
X126182000Y-45452000D01*
X126202000Y-45452000D01*
X126202000Y-45432000D01*
X126298000Y-45432000D01*
X126298000Y-45452000D01*
X126318000Y-45452000D01*
X126318000Y-45548000D01*
X126298000Y-45548000D01*
X126298000Y-46857750D01*
X126417250Y-46977000D01*
X127100000Y-46979308D01*
X127193508Y-46970098D01*
X127283423Y-46942823D01*
X127366289Y-46898530D01*
X127438922Y-46838922D01*
X127473000Y-46797398D01*
X127473000Y-60373000D01*
X126398413Y-60373000D01*
X126469744Y-60325338D01*
X126725338Y-60069744D01*
X126926156Y-59769199D01*
X127064482Y-59435250D01*
X127135000Y-59080732D01*
X127135000Y-58719268D01*
X127064482Y-58364750D01*
X126926156Y-58030801D01*
X126725338Y-57730256D01*
X126469744Y-57474662D01*
X126169199Y-57273844D01*
X125835250Y-57135518D01*
X125480732Y-57065000D01*
X125119268Y-57065000D01*
X124764750Y-57135518D01*
X124430801Y-57273844D01*
X124130256Y-57474662D01*
X123874662Y-57730256D01*
X123673844Y-58030801D01*
X123535518Y-58364750D01*
X123465000Y-58719268D01*
X123465000Y-59080732D01*
X123535518Y-59435250D01*
X123673844Y-59769199D01*
X123874662Y-60069744D01*
X124130256Y-60325338D01*
X124201587Y-60373000D01*
X120000000Y-60373000D01*
X119975224Y-60375440D01*
X119951399Y-60382667D01*
X119929443Y-60394403D01*
X119910197Y-60410197D01*
X119894403Y-60429443D01*
X119882667Y-60451399D01*
X119875440Y-60475224D01*
X119873000Y-60500000D01*
X119873000Y-68673000D01*
X111100000Y-68673000D01*
X111075224Y-68675440D01*
X111051399Y-68682667D01*
X111029443Y-68694403D01*
X111010197Y-68710197D01*
X110994403Y-68729443D01*
X110982667Y-68751399D01*
X110975440Y-68775224D01*
X110973000Y-68800000D01*
X110973000Y-77573000D01*
X106300000Y-77573000D01*
X106275224Y-77575440D01*
X106251399Y-77582667D01*
X106229443Y-77594403D01*
X106210197Y-77610197D01*
X106194403Y-77629443D01*
X106182667Y-77651399D01*
X106175440Y-77675224D01*
X106173000Y-77700000D01*
X106173000Y-82973000D01*
X98177000Y-82973000D01*
X98177000Y-81340711D01*
X98265226Y-81428937D01*
X98434744Y-81542205D01*
X98623102Y-81620226D01*
X98823061Y-81660000D01*
X99026939Y-81660000D01*
X99226898Y-81620226D01*
X99415256Y-81542205D01*
X99584774Y-81428937D01*
X99728937Y-81284774D01*
X99842205Y-81115256D01*
X99920226Y-80926898D01*
X99960000Y-80726939D01*
X99960000Y-80523061D01*
X99920226Y-80323102D01*
X99842205Y-80134744D01*
X99735000Y-79974300D01*
X99735000Y-77264791D01*
X99738919Y-77225000D01*
X99723432Y-77067758D01*
X99736664Y-77043004D01*
X99772799Y-76923882D01*
X99785000Y-76800000D01*
X99785000Y-73150000D01*
X99772799Y-73026118D01*
X99736664Y-72906996D01*
X99677983Y-72797213D01*
X99599013Y-72700987D01*
X99502787Y-72622017D01*
X99393004Y-72563336D01*
X99273882Y-72527201D01*
X99150000Y-72515000D01*
X98177000Y-72515000D01*
X98177000Y-72227000D01*
X102100000Y-72227000D01*
X102124776Y-72224560D01*
X102148601Y-72217333D01*
X102170557Y-72205597D01*
X102189803Y-72189803D01*
X102205597Y-72170557D01*
X102217333Y-72148601D01*
X102224560Y-72124776D01*
X102227000Y-72100000D01*
X102227000Y-60598061D01*
X105165000Y-60598061D01*
X105165000Y-60801939D01*
X105204774Y-61001898D01*
X105282795Y-61190256D01*
X105396063Y-61359774D01*
X105540226Y-61503937D01*
X105709744Y-61617205D01*
X105898102Y-61695226D01*
X105954957Y-61706535D01*
X108243465Y-63995044D01*
X108254774Y-64051898D01*
X108332795Y-64240256D01*
X108446063Y-64409774D01*
X108590226Y-64553937D01*
X108759744Y-64667205D01*
X108948102Y-64745226D01*
X109148061Y-64785000D01*
X109351939Y-64785000D01*
X109551898Y-64745226D01*
X109740256Y-64667205D01*
X109909774Y-64553937D01*
X110053937Y-64409774D01*
X110167205Y-64240256D01*
X110245226Y-64051898D01*
X110285000Y-63851939D01*
X110285000Y-63648061D01*
X110245226Y-63448102D01*
X110167205Y-63259744D01*
X110053937Y-63090226D01*
X109909774Y-62946063D01*
X109740256Y-62832795D01*
X109551898Y-62754774D01*
X109495044Y-62743465D01*
X107206535Y-60454957D01*
X107195226Y-60398102D01*
X107117205Y-60209744D01*
X107003937Y-60040226D01*
X106859774Y-59896063D01*
X106690256Y-59782795D01*
X106501898Y-59704774D01*
X106301939Y-59665000D01*
X106098061Y-59665000D01*
X105898102Y-59704774D01*
X105709744Y-59782795D01*
X105540226Y-59896063D01*
X105396063Y-60040226D01*
X105282795Y-60209744D01*
X105204774Y-60398102D01*
X105165000Y-60598061D01*
X102227000Y-60598061D01*
X102227000Y-57000000D01*
X102224560Y-56975224D01*
X102217333Y-56951399D01*
X102205597Y-56929443D01*
X102189803Y-56910197D01*
X102170557Y-56894403D01*
X102148601Y-56882667D01*
X102124776Y-56875440D01*
X102100000Y-56873000D01*
X76252606Y-56873000D01*
X75877667Y-56498061D01*
X107615000Y-56498061D01*
X107615000Y-56701939D01*
X107654774Y-56901898D01*
X107732795Y-57090256D01*
X107846063Y-57259774D01*
X107990226Y-57403937D01*
X108159744Y-57517205D01*
X108348102Y-57595226D01*
X108548061Y-57635000D01*
X108610199Y-57635000D01*
X109865000Y-58889802D01*
X109865000Y-58951939D01*
X109904774Y-59151898D01*
X109982795Y-59340256D01*
X110096063Y-59509774D01*
X110240226Y-59653937D01*
X110409744Y-59767205D01*
X110598102Y-59845226D01*
X110798061Y-59885000D01*
X111001939Y-59885000D01*
X111201898Y-59845226D01*
X111390256Y-59767205D01*
X111559774Y-59653937D01*
X111703937Y-59509774D01*
X111817205Y-59340256D01*
X111895226Y-59151898D01*
X111935000Y-58951939D01*
X111935000Y-58748061D01*
X111895226Y-58548102D01*
X111817205Y-58359744D01*
X111703937Y-58190226D01*
X111559774Y-58046063D01*
X111390256Y-57932795D01*
X111201898Y-57854774D01*
X111001939Y-57815000D01*
X110939802Y-57815000D01*
X109685000Y-56560199D01*
X109685000Y-56498061D01*
X109645226Y-56298102D01*
X109567205Y-56109744D01*
X109453937Y-55940226D01*
X109309774Y-55796063D01*
X109140256Y-55682795D01*
X108951898Y-55604774D01*
X108751939Y-55565000D01*
X108548061Y-55565000D01*
X108348102Y-55604774D01*
X108159744Y-55682795D01*
X107990226Y-55796063D01*
X107846063Y-55940226D01*
X107732795Y-56109744D01*
X107654774Y-56298102D01*
X107615000Y-56498061D01*
X75877667Y-56498061D01*
X75227000Y-55847394D01*
X75227000Y-54898061D01*
X80265000Y-54898061D01*
X80265000Y-55101939D01*
X80304774Y-55301898D01*
X80382795Y-55490256D01*
X80496063Y-55659774D01*
X80640226Y-55803937D01*
X80809744Y-55917205D01*
X80998102Y-55995226D01*
X81198061Y-56035000D01*
X81401939Y-56035000D01*
X81601898Y-55995226D01*
X81790256Y-55917205D01*
X81838454Y-55885000D01*
X92711546Y-55885000D01*
X92759744Y-55917205D01*
X92948102Y-55995226D01*
X93148061Y-56035000D01*
X93351939Y-56035000D01*
X93551898Y-55995226D01*
X93740256Y-55917205D01*
X93909774Y-55803937D01*
X94053937Y-55659774D01*
X94167205Y-55490256D01*
X94245226Y-55301898D01*
X94285000Y-55101939D01*
X94285000Y-54898061D01*
X94245226Y-54698102D01*
X94167205Y-54509744D01*
X94053937Y-54340226D01*
X93909774Y-54196063D01*
X93740256Y-54082795D01*
X93551898Y-54004774D01*
X93351939Y-53965000D01*
X93148061Y-53965000D01*
X92948102Y-54004774D01*
X92759744Y-54082795D01*
X92711546Y-54115000D01*
X81838454Y-54115000D01*
X81790256Y-54082795D01*
X81601898Y-54004774D01*
X81401939Y-53965000D01*
X81198061Y-53965000D01*
X80998102Y-54004774D01*
X80809744Y-54082795D01*
X80640226Y-54196063D01*
X80496063Y-54340226D01*
X80382795Y-54509744D01*
X80304774Y-54698102D01*
X80265000Y-54898061D01*
X75227000Y-54898061D01*
X75227000Y-54352606D01*
X76252606Y-53327000D01*
X94800000Y-53327000D01*
X94824776Y-53324560D01*
X94848601Y-53317333D01*
X94870557Y-53305597D01*
X94889803Y-53289803D01*
X94905597Y-53270557D01*
X94917333Y-53248601D01*
X94924560Y-53224776D01*
X94927000Y-53200000D01*
X94927000Y-47127000D01*
X106000000Y-47127000D01*
X106024776Y-47124560D01*
X106048601Y-47117333D01*
X106070557Y-47105597D01*
X106089803Y-47089803D01*
X108552606Y-44627000D01*
X122452628Y-44627000D01*
X122371401Y-44778966D01*
G37*
%TD.AperFunction*%
%TD*%
D21*
%TO.N,Net-(C6-Pad1)*%
X99023000Y-76177488D02*
X98750899Y-75905387D01*
X98725528Y-75874472D01*
X98602189Y-75773251D01*
X98461473Y-75698037D01*
X98308788Y-75651720D01*
X98189791Y-75640000D01*
X98189788Y-75640000D01*
X98150000Y-75636081D01*
X98110212Y-75640000D01*
X84835513Y-75640000D01*
X83527000Y-74331488D01*
X83527000Y-73277000D01*
X99023000Y-73277000D01*
X99023000Y-76177488D01*
%TA.AperFunction,Conductor*%
D22*
G36*
X99023000Y-76177488D02*
G01*
X98750899Y-75905387D01*
X98725528Y-75874472D01*
X98602189Y-75773251D01*
X98461473Y-75698037D01*
X98308788Y-75651720D01*
X98189791Y-75640000D01*
X98189788Y-75640000D01*
X98150000Y-75636081D01*
X98110212Y-75640000D01*
X84835513Y-75640000D01*
X83527000Y-74331488D01*
X83527000Y-73277000D01*
X99023000Y-73277000D01*
X99023000Y-76177488D01*
G37*
%TD.AperFunction*%
%TD*%
M02*
