%TF.GenerationSoftware,KiCad,Pcbnew,5.1.7-a382d34a8~87~ubuntu18.04.1*%
%TF.CreationDate,2021-12-24T14:38:43-05:00*%
%TF.ProjectId,Source_Balancer_SMD,536f7572-6365-45f4-9261-6c616e636572,rev?*%
%TF.SameCoordinates,Original*%
%TF.FileFunction,Soldermask,Top*%
%TF.FilePolarity,Negative*%
%FSLAX46Y46*%
G04 Gerber Fmt 4.6, Leading zero omitted, Abs format (unit mm)*
G04 Created by KiCad (PCBNEW 5.1.7-a382d34a8~87~ubuntu18.04.1) date 2021-12-24 14:38:43*
%MOMM*%
%LPD*%
G01*
G04 APERTURE LIST*
%ADD10C,0.100000*%
%ADD11O,1.700000X2.000000*%
%ADD12R,0.900000X1.200000*%
%ADD13R,1.200000X0.900000*%
%ADD14C,1.800000*%
%ADD15O,2.400000X2.400000*%
%ADD16C,2.400000*%
%ADD17R,10.800000X9.000000*%
%ADD18R,1.250000X3.500000*%
%ADD19R,0.800000X0.900000*%
%ADD20C,0.900000*%
%ADD21C,10.600000*%
%ADD22R,1.800000X2.500000*%
G04 APERTURE END LIST*
D10*
G36*
X134000000Y-91500000D02*
G01*
X120500000Y-91500000D01*
X120500000Y-78550000D01*
X134000000Y-78550000D01*
X134000000Y-91500000D01*
G37*
X134000000Y-91500000D02*
X120500000Y-91500000D01*
X120500000Y-78550000D01*
X134000000Y-78550000D01*
X134000000Y-91500000D01*
G36*
X71950000Y-52000000D02*
G01*
X59000000Y-52000000D01*
X59000000Y-38500000D01*
X71950000Y-38500000D01*
X71950000Y-52000000D01*
G37*
X71950000Y-52000000D02*
X59000000Y-52000000D01*
X59000000Y-38500000D01*
X71950000Y-38500000D01*
X71950000Y-52000000D01*
G36*
X71950000Y-71750000D02*
G01*
X59000000Y-71750000D01*
X59000000Y-58250000D01*
X71950000Y-58250000D01*
X71950000Y-71750000D01*
G37*
X71950000Y-71750000D02*
X59000000Y-71750000D01*
X59000000Y-58250000D01*
X71950000Y-58250000D01*
X71950000Y-71750000D01*
G36*
X71950000Y-91500000D02*
G01*
X59000000Y-91500000D01*
X59000000Y-78000000D01*
X71950000Y-78000000D01*
X71950000Y-91500000D01*
G37*
X71950000Y-91500000D02*
X59000000Y-91500000D01*
X59000000Y-78000000D01*
X71950000Y-78000000D01*
X71950000Y-91500000D01*
%TO.C,R18*%
G36*
G01*
X119099999Y-51837500D02*
X120000001Y-51837500D01*
G75*
G02*
X120250000Y-52087499I0J-249999D01*
G01*
X120250000Y-52612501D01*
G75*
G02*
X120000001Y-52862500I-249999J0D01*
G01*
X119099999Y-52862500D01*
G75*
G02*
X118850000Y-52612501I0J249999D01*
G01*
X118850000Y-52087499D01*
G75*
G02*
X119099999Y-51837500I249999J0D01*
G01*
G37*
G36*
G01*
X119099999Y-50012500D02*
X120000001Y-50012500D01*
G75*
G02*
X120250000Y-50262499I0J-249999D01*
G01*
X120250000Y-50787501D01*
G75*
G02*
X120000001Y-51037500I-249999J0D01*
G01*
X119099999Y-51037500D01*
G75*
G02*
X118850000Y-50787501I0J249999D01*
G01*
X118850000Y-50262499D01*
G75*
G02*
X119099999Y-50012500I249999J0D01*
G01*
G37*
%TD*%
D11*
%TO.C,J5*%
X123750000Y-45500000D03*
G36*
G01*
X127100000Y-44750000D02*
X127100000Y-46250000D01*
G75*
G02*
X126850000Y-46500000I-250000J0D01*
G01*
X125650000Y-46500000D01*
G75*
G02*
X125400000Y-46250000I0J250000D01*
G01*
X125400000Y-44750000D01*
G75*
G02*
X125650000Y-44500000I250000J0D01*
G01*
X126850000Y-44500000D01*
G75*
G02*
X127100000Y-44750000I0J-250000D01*
G01*
G37*
%TD*%
%TO.C,U1*%
G36*
G01*
X116950000Y-58990000D02*
X116950000Y-58690000D01*
G75*
G02*
X117100000Y-58540000I150000J0D01*
G01*
X118750000Y-58540000D01*
G75*
G02*
X118900000Y-58690000I0J-150000D01*
G01*
X118900000Y-58990000D01*
G75*
G02*
X118750000Y-59140000I-150000J0D01*
G01*
X117100000Y-59140000D01*
G75*
G02*
X116950000Y-58990000I0J150000D01*
G01*
G37*
G36*
G01*
X116950000Y-60260000D02*
X116950000Y-59960000D01*
G75*
G02*
X117100000Y-59810000I150000J0D01*
G01*
X118750000Y-59810000D01*
G75*
G02*
X118900000Y-59960000I0J-150000D01*
G01*
X118900000Y-60260000D01*
G75*
G02*
X118750000Y-60410000I-150000J0D01*
G01*
X117100000Y-60410000D01*
G75*
G02*
X116950000Y-60260000I0J150000D01*
G01*
G37*
G36*
G01*
X116950000Y-61530000D02*
X116950000Y-61230000D01*
G75*
G02*
X117100000Y-61080000I150000J0D01*
G01*
X118750000Y-61080000D01*
G75*
G02*
X118900000Y-61230000I0J-150000D01*
G01*
X118900000Y-61530000D01*
G75*
G02*
X118750000Y-61680000I-150000J0D01*
G01*
X117100000Y-61680000D01*
G75*
G02*
X116950000Y-61530000I0J150000D01*
G01*
G37*
G36*
G01*
X116950000Y-62800000D02*
X116950000Y-62500000D01*
G75*
G02*
X117100000Y-62350000I150000J0D01*
G01*
X118750000Y-62350000D01*
G75*
G02*
X118900000Y-62500000I0J-150000D01*
G01*
X118900000Y-62800000D01*
G75*
G02*
X118750000Y-62950000I-150000J0D01*
G01*
X117100000Y-62950000D01*
G75*
G02*
X116950000Y-62800000I0J150000D01*
G01*
G37*
G36*
G01*
X116950000Y-64070000D02*
X116950000Y-63770000D01*
G75*
G02*
X117100000Y-63620000I150000J0D01*
G01*
X118750000Y-63620000D01*
G75*
G02*
X118900000Y-63770000I0J-150000D01*
G01*
X118900000Y-64070000D01*
G75*
G02*
X118750000Y-64220000I-150000J0D01*
G01*
X117100000Y-64220000D01*
G75*
G02*
X116950000Y-64070000I0J150000D01*
G01*
G37*
G36*
G01*
X116950000Y-65340000D02*
X116950000Y-65040000D01*
G75*
G02*
X117100000Y-64890000I150000J0D01*
G01*
X118750000Y-64890000D01*
G75*
G02*
X118900000Y-65040000I0J-150000D01*
G01*
X118900000Y-65340000D01*
G75*
G02*
X118750000Y-65490000I-150000J0D01*
G01*
X117100000Y-65490000D01*
G75*
G02*
X116950000Y-65340000I0J150000D01*
G01*
G37*
G36*
G01*
X116950000Y-66610000D02*
X116950000Y-66310000D01*
G75*
G02*
X117100000Y-66160000I150000J0D01*
G01*
X118750000Y-66160000D01*
G75*
G02*
X118900000Y-66310000I0J-150000D01*
G01*
X118900000Y-66610000D01*
G75*
G02*
X118750000Y-66760000I-150000J0D01*
G01*
X117100000Y-66760000D01*
G75*
G02*
X116950000Y-66610000I0J150000D01*
G01*
G37*
G36*
G01*
X112000000Y-66610000D02*
X112000000Y-66310000D01*
G75*
G02*
X112150000Y-66160000I150000J0D01*
G01*
X113800000Y-66160000D01*
G75*
G02*
X113950000Y-66310000I0J-150000D01*
G01*
X113950000Y-66610000D01*
G75*
G02*
X113800000Y-66760000I-150000J0D01*
G01*
X112150000Y-66760000D01*
G75*
G02*
X112000000Y-66610000I0J150000D01*
G01*
G37*
G36*
G01*
X112000000Y-65340000D02*
X112000000Y-65040000D01*
G75*
G02*
X112150000Y-64890000I150000J0D01*
G01*
X113800000Y-64890000D01*
G75*
G02*
X113950000Y-65040000I0J-150000D01*
G01*
X113950000Y-65340000D01*
G75*
G02*
X113800000Y-65490000I-150000J0D01*
G01*
X112150000Y-65490000D01*
G75*
G02*
X112000000Y-65340000I0J150000D01*
G01*
G37*
G36*
G01*
X112000000Y-64070000D02*
X112000000Y-63770000D01*
G75*
G02*
X112150000Y-63620000I150000J0D01*
G01*
X113800000Y-63620000D01*
G75*
G02*
X113950000Y-63770000I0J-150000D01*
G01*
X113950000Y-64070000D01*
G75*
G02*
X113800000Y-64220000I-150000J0D01*
G01*
X112150000Y-64220000D01*
G75*
G02*
X112000000Y-64070000I0J150000D01*
G01*
G37*
G36*
G01*
X112000000Y-62800000D02*
X112000000Y-62500000D01*
G75*
G02*
X112150000Y-62350000I150000J0D01*
G01*
X113800000Y-62350000D01*
G75*
G02*
X113950000Y-62500000I0J-150000D01*
G01*
X113950000Y-62800000D01*
G75*
G02*
X113800000Y-62950000I-150000J0D01*
G01*
X112150000Y-62950000D01*
G75*
G02*
X112000000Y-62800000I0J150000D01*
G01*
G37*
G36*
G01*
X112000000Y-61530000D02*
X112000000Y-61230000D01*
G75*
G02*
X112150000Y-61080000I150000J0D01*
G01*
X113800000Y-61080000D01*
G75*
G02*
X113950000Y-61230000I0J-150000D01*
G01*
X113950000Y-61530000D01*
G75*
G02*
X113800000Y-61680000I-150000J0D01*
G01*
X112150000Y-61680000D01*
G75*
G02*
X112000000Y-61530000I0J150000D01*
G01*
G37*
G36*
G01*
X112000000Y-60260000D02*
X112000000Y-59960000D01*
G75*
G02*
X112150000Y-59810000I150000J0D01*
G01*
X113800000Y-59810000D01*
G75*
G02*
X113950000Y-59960000I0J-150000D01*
G01*
X113950000Y-60260000D01*
G75*
G02*
X113800000Y-60410000I-150000J0D01*
G01*
X112150000Y-60410000D01*
G75*
G02*
X112000000Y-60260000I0J150000D01*
G01*
G37*
G36*
G01*
X112000000Y-58990000D02*
X112000000Y-58690000D01*
G75*
G02*
X112150000Y-58540000I150000J0D01*
G01*
X113800000Y-58540000D01*
G75*
G02*
X113950000Y-58690000I0J-150000D01*
G01*
X113950000Y-58990000D01*
G75*
G02*
X113800000Y-59140000I-150000J0D01*
G01*
X112150000Y-59140000D01*
G75*
G02*
X112000000Y-58990000I0J150000D01*
G01*
G37*
%TD*%
D12*
%TO.C,D8*%
X73400000Y-74900000D03*
X76700000Y-74900000D03*
%TD*%
D13*
%TO.C,D7*%
X99000000Y-50850000D03*
X99000000Y-54150000D03*
%TD*%
D12*
%TO.C,D6*%
X97750000Y-75000000D03*
X94450000Y-75000000D03*
%TD*%
%TO.C,D5*%
X76700000Y-55000000D03*
X80000000Y-55000000D03*
%TD*%
D14*
%TO.C,RV2*%
X107000000Y-89800000D03*
X99500000Y-88000000D03*
%TD*%
%TO.C,RV1*%
X102500000Y-42300000D03*
X95000000Y-40500000D03*
%TD*%
%TO.C,R17*%
G36*
G01*
X101299999Y-74837500D02*
X102200001Y-74837500D01*
G75*
G02*
X102450000Y-75087499I0J-249999D01*
G01*
X102450000Y-75612501D01*
G75*
G02*
X102200001Y-75862500I-249999J0D01*
G01*
X101299999Y-75862500D01*
G75*
G02*
X101050000Y-75612501I0J249999D01*
G01*
X101050000Y-75087499D01*
G75*
G02*
X101299999Y-74837500I249999J0D01*
G01*
G37*
G36*
G01*
X101299999Y-73012500D02*
X102200001Y-73012500D01*
G75*
G02*
X102450000Y-73262499I0J-249999D01*
G01*
X102450000Y-73787501D01*
G75*
G02*
X102200001Y-74037500I-249999J0D01*
G01*
X101299999Y-74037500D01*
G75*
G02*
X101050000Y-73787501I0J249999D01*
G01*
X101050000Y-73262499D01*
G75*
G02*
X101299999Y-73012500I249999J0D01*
G01*
G37*
%TD*%
%TO.C,R16*%
G36*
G01*
X100237500Y-79900001D02*
X100237500Y-78999999D01*
G75*
G02*
X100487499Y-78750000I249999J0D01*
G01*
X101012501Y-78750000D01*
G75*
G02*
X101262500Y-78999999I0J-249999D01*
G01*
X101262500Y-79900001D01*
G75*
G02*
X101012501Y-80150000I-249999J0D01*
G01*
X100487499Y-80150000D01*
G75*
G02*
X100237500Y-79900001I0J249999D01*
G01*
G37*
G36*
G01*
X98412500Y-79900001D02*
X98412500Y-78999999D01*
G75*
G02*
X98662499Y-78750000I249999J0D01*
G01*
X99187501Y-78750000D01*
G75*
G02*
X99437500Y-78999999I0J-249999D01*
G01*
X99437500Y-79900001D01*
G75*
G02*
X99187501Y-80150000I-249999J0D01*
G01*
X98662499Y-80150000D01*
G75*
G02*
X98412500Y-79900001I0J249999D01*
G01*
G37*
%TD*%
%TO.C,R15*%
G36*
G01*
X102262500Y-55050001D02*
X102262500Y-54149999D01*
G75*
G02*
X102512499Y-53900000I249999J0D01*
G01*
X103037501Y-53900000D01*
G75*
G02*
X103287500Y-54149999I0J-249999D01*
G01*
X103287500Y-55050001D01*
G75*
G02*
X103037501Y-55300000I-249999J0D01*
G01*
X102512499Y-55300000D01*
G75*
G02*
X102262500Y-55050001I0J249999D01*
G01*
G37*
G36*
G01*
X100437500Y-55050001D02*
X100437500Y-54149999D01*
G75*
G02*
X100687499Y-53900000I249999J0D01*
G01*
X101212501Y-53900000D01*
G75*
G02*
X101462500Y-54149999I0J-249999D01*
G01*
X101462500Y-55050001D01*
G75*
G02*
X101212501Y-55300000I-249999J0D01*
G01*
X100687499Y-55300000D01*
G75*
G02*
X100437500Y-55050001I0J249999D01*
G01*
G37*
%TD*%
%TO.C,R14*%
G36*
G01*
X98874999Y-84800000D02*
X100125001Y-84800000D01*
G75*
G02*
X100375000Y-85049999I0J-249999D01*
G01*
X100375000Y-85675001D01*
G75*
G02*
X100125001Y-85925000I-249999J0D01*
G01*
X98874999Y-85925000D01*
G75*
G02*
X98625000Y-85675001I0J249999D01*
G01*
X98625000Y-85049999D01*
G75*
G02*
X98874999Y-84800000I249999J0D01*
G01*
G37*
G36*
G01*
X98874999Y-81875000D02*
X100125001Y-81875000D01*
G75*
G02*
X100375000Y-82124999I0J-249999D01*
G01*
X100375000Y-82750001D01*
G75*
G02*
X100125001Y-83000000I-249999J0D01*
G01*
X98874999Y-83000000D01*
G75*
G02*
X98625000Y-82750001I0J249999D01*
G01*
X98625000Y-82124999D01*
G75*
G02*
X98874999Y-81875000I249999J0D01*
G01*
G37*
%TD*%
%TO.C,R13*%
G36*
G01*
X93100000Y-48474999D02*
X93100000Y-49725001D01*
G75*
G02*
X92850001Y-49975000I-249999J0D01*
G01*
X92224999Y-49975000D01*
G75*
G02*
X91975000Y-49725001I0J249999D01*
G01*
X91975000Y-48474999D01*
G75*
G02*
X92224999Y-48225000I249999J0D01*
G01*
X92850001Y-48225000D01*
G75*
G02*
X93100000Y-48474999I0J-249999D01*
G01*
G37*
G36*
G01*
X96025000Y-48474999D02*
X96025000Y-49725001D01*
G75*
G02*
X95775001Y-49975000I-249999J0D01*
G01*
X95149999Y-49975000D01*
G75*
G02*
X94900000Y-49725001I0J249999D01*
G01*
X94900000Y-48474999D01*
G75*
G02*
X95149999Y-48225000I249999J0D01*
G01*
X95775001Y-48225000D01*
G75*
G02*
X96025000Y-48474999I0J-249999D01*
G01*
G37*
%TD*%
%TO.C,R12*%
G36*
G01*
X100237500Y-77900001D02*
X100237500Y-76999999D01*
G75*
G02*
X100487499Y-76750000I249999J0D01*
G01*
X101012501Y-76750000D01*
G75*
G02*
X101262500Y-76999999I0J-249999D01*
G01*
X101262500Y-77900001D01*
G75*
G02*
X101012501Y-78150000I-249999J0D01*
G01*
X100487499Y-78150000D01*
G75*
G02*
X100237500Y-77900001I0J249999D01*
G01*
G37*
G36*
G01*
X98412500Y-77900001D02*
X98412500Y-76999999D01*
G75*
G02*
X98662499Y-76750000I249999J0D01*
G01*
X99187501Y-76750000D01*
G75*
G02*
X99437500Y-76999999I0J-249999D01*
G01*
X99437500Y-77900001D01*
G75*
G02*
X99187501Y-78150000I-249999J0D01*
G01*
X98662499Y-78150000D01*
G75*
G02*
X98412500Y-77900001I0J249999D01*
G01*
G37*
%TD*%
%TO.C,R11*%
G36*
G01*
X102262500Y-53100001D02*
X102262500Y-52199999D01*
G75*
G02*
X102512499Y-51950000I249999J0D01*
G01*
X103037501Y-51950000D01*
G75*
G02*
X103287500Y-52199999I0J-249999D01*
G01*
X103287500Y-53100001D01*
G75*
G02*
X103037501Y-53350000I-249999J0D01*
G01*
X102512499Y-53350000D01*
G75*
G02*
X102262500Y-53100001I0J249999D01*
G01*
G37*
G36*
G01*
X100437500Y-53100001D02*
X100437500Y-52199999D01*
G75*
G02*
X100687499Y-51950000I249999J0D01*
G01*
X101212501Y-51950000D01*
G75*
G02*
X101462500Y-52199999I0J-249999D01*
G01*
X101462500Y-53100001D01*
G75*
G02*
X101212501Y-53350000I-249999J0D01*
G01*
X100687499Y-53350000D01*
G75*
G02*
X100437500Y-53100001I0J249999D01*
G01*
G37*
%TD*%
%TO.C,R10*%
G36*
G01*
X107550000Y-64200001D02*
X107550000Y-63299999D01*
G75*
G02*
X107799999Y-63050000I249999J0D01*
G01*
X108325001Y-63050000D01*
G75*
G02*
X108575000Y-63299999I0J-249999D01*
G01*
X108575000Y-64200001D01*
G75*
G02*
X108325001Y-64450000I-249999J0D01*
G01*
X107799999Y-64450000D01*
G75*
G02*
X107550000Y-64200001I0J249999D01*
G01*
G37*
G36*
G01*
X105725000Y-64200001D02*
X105725000Y-63299999D01*
G75*
G02*
X105974999Y-63050000I249999J0D01*
G01*
X106500001Y-63050000D01*
G75*
G02*
X106750000Y-63299999I0J-249999D01*
G01*
X106750000Y-64200001D01*
G75*
G02*
X106500001Y-64450000I-249999J0D01*
G01*
X105974999Y-64450000D01*
G75*
G02*
X105725000Y-64200001I0J249999D01*
G01*
G37*
%TD*%
%TO.C,R9*%
G36*
G01*
X116750001Y-52862500D02*
X115849999Y-52862500D01*
G75*
G02*
X115600000Y-52612501I0J249999D01*
G01*
X115600000Y-52087499D01*
G75*
G02*
X115849999Y-51837500I249999J0D01*
G01*
X116750001Y-51837500D01*
G75*
G02*
X117000000Y-52087499I0J-249999D01*
G01*
X117000000Y-52612501D01*
G75*
G02*
X116750001Y-52862500I-249999J0D01*
G01*
G37*
G36*
G01*
X116750001Y-54687500D02*
X115849999Y-54687500D01*
G75*
G02*
X115600000Y-54437501I0J249999D01*
G01*
X115600000Y-53912499D01*
G75*
G02*
X115849999Y-53662500I249999J0D01*
G01*
X116750001Y-53662500D01*
G75*
G02*
X117000000Y-53912499I0J-249999D01*
G01*
X117000000Y-54437501D01*
G75*
G02*
X116750001Y-54687500I-249999J0D01*
G01*
G37*
%TD*%
%TO.C,R8*%
G36*
G01*
X103849999Y-71212500D02*
X104750001Y-71212500D01*
G75*
G02*
X105000000Y-71462499I0J-249999D01*
G01*
X105000000Y-71987501D01*
G75*
G02*
X104750001Y-72237500I-249999J0D01*
G01*
X103849999Y-72237500D01*
G75*
G02*
X103600000Y-71987501I0J249999D01*
G01*
X103600000Y-71462499D01*
G75*
G02*
X103849999Y-71212500I249999J0D01*
G01*
G37*
G36*
G01*
X103849999Y-69387500D02*
X104750001Y-69387500D01*
G75*
G02*
X105000000Y-69637499I0J-249999D01*
G01*
X105000000Y-70162501D01*
G75*
G02*
X104750001Y-70412500I-249999J0D01*
G01*
X103849999Y-70412500D01*
G75*
G02*
X103600000Y-70162501I0J249999D01*
G01*
X103600000Y-69637499D01*
G75*
G02*
X103849999Y-69387500I249999J0D01*
G01*
G37*
%TD*%
%TO.C,R7*%
G36*
G01*
X109700001Y-66337500D02*
X108799999Y-66337500D01*
G75*
G02*
X108550000Y-66087501I0J249999D01*
G01*
X108550000Y-65562499D01*
G75*
G02*
X108799999Y-65312500I249999J0D01*
G01*
X109700001Y-65312500D01*
G75*
G02*
X109950000Y-65562499I0J-249999D01*
G01*
X109950000Y-66087501D01*
G75*
G02*
X109700001Y-66337500I-249999J0D01*
G01*
G37*
G36*
G01*
X109700001Y-68162500D02*
X108799999Y-68162500D01*
G75*
G02*
X108550000Y-67912501I0J249999D01*
G01*
X108550000Y-67387499D01*
G75*
G02*
X108799999Y-67137500I249999J0D01*
G01*
X109700001Y-67137500D01*
G75*
G02*
X109950000Y-67387499I0J-249999D01*
G01*
X109950000Y-67912501D01*
G75*
G02*
X109700001Y-68162500I-249999J0D01*
G01*
G37*
%TD*%
D15*
%TO.C,R6*%
X116700000Y-89150000D03*
D16*
X116700000Y-73910000D03*
%TD*%
%TO.C,R5*%
G36*
G01*
X112575001Y-87337500D02*
X111324999Y-87337500D01*
G75*
G02*
X111075000Y-87087501I0J249999D01*
G01*
X111075000Y-86462499D01*
G75*
G02*
X111324999Y-86212500I249999J0D01*
G01*
X112575001Y-86212500D01*
G75*
G02*
X112825000Y-86462499I0J-249999D01*
G01*
X112825000Y-87087501D01*
G75*
G02*
X112575001Y-87337500I-249999J0D01*
G01*
G37*
G36*
G01*
X112575001Y-90262500D02*
X111324999Y-90262500D01*
G75*
G02*
X111075000Y-90012501I0J249999D01*
G01*
X111075000Y-89387499D01*
G75*
G02*
X111324999Y-89137500I249999J0D01*
G01*
X112575001Y-89137500D01*
G75*
G02*
X112825000Y-89387499I0J-249999D01*
G01*
X112825000Y-90012501D01*
G75*
G02*
X112575001Y-90262500I-249999J0D01*
G01*
G37*
%TD*%
%TO.C,R4*%
G36*
G01*
X110775001Y-82337500D02*
X109524999Y-82337500D01*
G75*
G02*
X109275000Y-82087501I0J249999D01*
G01*
X109275000Y-81462499D01*
G75*
G02*
X109524999Y-81212500I249999J0D01*
G01*
X110775001Y-81212500D01*
G75*
G02*
X111025000Y-81462499I0J-249999D01*
G01*
X111025000Y-82087501D01*
G75*
G02*
X110775001Y-82337500I-249999J0D01*
G01*
G37*
G36*
G01*
X110775001Y-85262500D02*
X109524999Y-85262500D01*
G75*
G02*
X109275000Y-85012501I0J249999D01*
G01*
X109275000Y-84387499D01*
G75*
G02*
X109524999Y-84137500I249999J0D01*
G01*
X110775001Y-84137500D01*
G75*
G02*
X111025000Y-84387499I0J-249999D01*
G01*
X111025000Y-85012501D01*
G75*
G02*
X110775001Y-85262500I-249999J0D01*
G01*
G37*
%TD*%
%TO.C,R3*%
G36*
G01*
X110775001Y-77637500D02*
X109524999Y-77637500D01*
G75*
G02*
X109275000Y-77387501I0J249999D01*
G01*
X109275000Y-76762499D01*
G75*
G02*
X109524999Y-76512500I249999J0D01*
G01*
X110775001Y-76512500D01*
G75*
G02*
X111025000Y-76762499I0J-249999D01*
G01*
X111025000Y-77387501D01*
G75*
G02*
X110775001Y-77637500I-249999J0D01*
G01*
G37*
G36*
G01*
X110775001Y-80562500D02*
X109524999Y-80562500D01*
G75*
G02*
X109275000Y-80312501I0J249999D01*
G01*
X109275000Y-79687499D01*
G75*
G02*
X109524999Y-79437500I249999J0D01*
G01*
X110775001Y-79437500D01*
G75*
G02*
X111025000Y-79687499I0J-249999D01*
G01*
X111025000Y-80312501D01*
G75*
G02*
X110775001Y-80562500I-249999J0D01*
G01*
G37*
%TD*%
%TO.C,R2*%
G36*
G01*
X131825001Y-61100000D02*
X130574999Y-61100000D01*
G75*
G02*
X130325000Y-60850001I0J249999D01*
G01*
X130325000Y-60224999D01*
G75*
G02*
X130574999Y-59975000I249999J0D01*
G01*
X131825001Y-59975000D01*
G75*
G02*
X132075000Y-60224999I0J-249999D01*
G01*
X132075000Y-60850001D01*
G75*
G02*
X131825001Y-61100000I-249999J0D01*
G01*
G37*
G36*
G01*
X131825001Y-64025000D02*
X130574999Y-64025000D01*
G75*
G02*
X130325000Y-63775001I0J249999D01*
G01*
X130325000Y-63149999D01*
G75*
G02*
X130574999Y-62900000I249999J0D01*
G01*
X131825001Y-62900000D01*
G75*
G02*
X132075000Y-63149999I0J-249999D01*
G01*
X132075000Y-63775001D01*
G75*
G02*
X131825001Y-64025000I-249999J0D01*
G01*
G37*
%TD*%
%TO.C,R1*%
G36*
G01*
X131825001Y-69937500D02*
X130574999Y-69937500D01*
G75*
G02*
X130325000Y-69687501I0J249999D01*
G01*
X130325000Y-69062499D01*
G75*
G02*
X130574999Y-68812500I249999J0D01*
G01*
X131825001Y-68812500D01*
G75*
G02*
X132075000Y-69062499I0J-249999D01*
G01*
X132075000Y-69687501D01*
G75*
G02*
X131825001Y-69937500I-249999J0D01*
G01*
G37*
G36*
G01*
X131825001Y-72862500D02*
X130574999Y-72862500D01*
G75*
G02*
X130325000Y-72612501I0J249999D01*
G01*
X130325000Y-71987499D01*
G75*
G02*
X130574999Y-71737500I249999J0D01*
G01*
X131825001Y-71737500D01*
G75*
G02*
X132075000Y-71987499I0J-249999D01*
G01*
X132075000Y-72612501D01*
G75*
G02*
X131825001Y-72862500I-249999J0D01*
G01*
G37*
%TD*%
D17*
%TO.C,Q10*%
X81500000Y-65000000D03*
D18*
X84040000Y-74875000D03*
X78960000Y-74875000D03*
%TD*%
D17*
%TO.C,Q9*%
X94000000Y-65000000D03*
D18*
X91460000Y-55125000D03*
X96540000Y-55125000D03*
%TD*%
D17*
%TO.C,Q8*%
X90040000Y-84875000D03*
D18*
X87500000Y-75000000D03*
X92580000Y-75000000D03*
%TD*%
D17*
%TO.C,Q7*%
X85500000Y-45125000D03*
D18*
X88040000Y-55000000D03*
X82960000Y-55000000D03*
%TD*%
D19*
%TO.C,Q6*%
X104500000Y-80050000D03*
X105450000Y-82050000D03*
X103550000Y-82050000D03*
%TD*%
%TO.C,Q5*%
X104500000Y-76300000D03*
X105450000Y-78300000D03*
X103550000Y-78300000D03*
%TD*%
%TO.C,Q4*%
X106600000Y-54600000D03*
X107550000Y-56600000D03*
X105650000Y-56600000D03*
%TD*%
%TO.C,Q3*%
X106600000Y-50650000D03*
X107550000Y-52650000D03*
X105650000Y-52650000D03*
%TD*%
%TO.C,Q2*%
X106250000Y-65650000D03*
X107200000Y-67650000D03*
X105300000Y-67650000D03*
%TD*%
%TO.C,Q1*%
X107200000Y-69200000D03*
X108150000Y-71200000D03*
X106250000Y-71200000D03*
%TD*%
D20*
%TO.C,J4*%
X67810749Y-62189251D03*
X65000000Y-61025000D03*
X62189251Y-62189251D03*
X61025000Y-65000000D03*
X62189251Y-67810749D03*
X65000000Y-68975000D03*
X67810749Y-67810749D03*
X68975000Y-65000000D03*
D21*
X65000000Y-65000000D03*
%TD*%
D20*
%TO.C,J3*%
X67810749Y-82189251D03*
X65000000Y-81025000D03*
X62189251Y-82189251D03*
X61025000Y-85000000D03*
X62189251Y-87810749D03*
X65000000Y-88975000D03*
X67810749Y-87810749D03*
X68975000Y-85000000D03*
D21*
X65000000Y-85000000D03*
%TD*%
D20*
%TO.C,J2*%
X67810749Y-42189251D03*
X65000000Y-41025000D03*
X62189251Y-42189251D03*
X61025000Y-45000000D03*
X62189251Y-47810749D03*
X65000000Y-48975000D03*
X67810749Y-47810749D03*
X68975000Y-45000000D03*
D21*
X65000000Y-45000000D03*
%TD*%
D20*
%TO.C,J1*%
X130810749Y-82689251D03*
X128000000Y-81525000D03*
X125189251Y-82689251D03*
X124025000Y-85500000D03*
X125189251Y-88310749D03*
X128000000Y-89475000D03*
X130810749Y-88310749D03*
X131975000Y-85500000D03*
D21*
X128000000Y-85500000D03*
%TD*%
%TO.C,D4*%
G36*
G01*
X113962500Y-54656250D02*
X113962500Y-53743750D01*
G75*
G02*
X114206250Y-53500000I243750J0D01*
G01*
X114693750Y-53500000D01*
G75*
G02*
X114937500Y-53743750I0J-243750D01*
G01*
X114937500Y-54656250D01*
G75*
G02*
X114693750Y-54900000I-243750J0D01*
G01*
X114206250Y-54900000D01*
G75*
G02*
X113962500Y-54656250I0J243750D01*
G01*
G37*
G36*
G01*
X112087500Y-54656250D02*
X112087500Y-53743750D01*
G75*
G02*
X112331250Y-53500000I243750J0D01*
G01*
X112818750Y-53500000D01*
G75*
G02*
X113062500Y-53743750I0J-243750D01*
G01*
X113062500Y-54656250D01*
G75*
G02*
X112818750Y-54900000I-243750J0D01*
G01*
X112331250Y-54900000D01*
G75*
G02*
X112087500Y-54656250I0J243750D01*
G01*
G37*
%TD*%
D13*
%TO.C,D3*%
X121900000Y-55650000D03*
X121900000Y-52350000D03*
%TD*%
%TO.C,D2*%
X110150000Y-72050000D03*
X110150000Y-75350000D03*
%TD*%
D22*
%TO.C,D1*%
X125300000Y-50200000D03*
X125300000Y-54200000D03*
%TD*%
%TO.C,C6*%
G36*
G01*
X100250000Y-73900000D02*
X99750000Y-73900000D01*
G75*
G02*
X99525000Y-73675000I0J225000D01*
G01*
X99525000Y-73225000D01*
G75*
G02*
X99750000Y-73000000I225000J0D01*
G01*
X100250000Y-73000000D01*
G75*
G02*
X100475000Y-73225000I0J-225000D01*
G01*
X100475000Y-73675000D01*
G75*
G02*
X100250000Y-73900000I-225000J0D01*
G01*
G37*
G36*
G01*
X100250000Y-75450000D02*
X99750000Y-75450000D01*
G75*
G02*
X99525000Y-75225000I0J225000D01*
G01*
X99525000Y-74775000D01*
G75*
G02*
X99750000Y-74550000I225000J0D01*
G01*
X100250000Y-74550000D01*
G75*
G02*
X100475000Y-74775000I0J-225000D01*
G01*
X100475000Y-75225000D01*
G75*
G02*
X100250000Y-75450000I-225000J0D01*
G01*
G37*
%TD*%
%TO.C,C5*%
G36*
G01*
X105600000Y-75000000D02*
X105600000Y-74500000D01*
G75*
G02*
X105825000Y-74275000I225000J0D01*
G01*
X106275000Y-74275000D01*
G75*
G02*
X106500000Y-74500000I0J-225000D01*
G01*
X106500000Y-75000000D01*
G75*
G02*
X106275000Y-75225000I-225000J0D01*
G01*
X105825000Y-75225000D01*
G75*
G02*
X105600000Y-75000000I0J225000D01*
G01*
G37*
G36*
G01*
X104050000Y-75000000D02*
X104050000Y-74500000D01*
G75*
G02*
X104275000Y-74275000I225000J0D01*
G01*
X104725000Y-74275000D01*
G75*
G02*
X104950000Y-74500000I0J-225000D01*
G01*
X104950000Y-75000000D01*
G75*
G02*
X104725000Y-75225000I-225000J0D01*
G01*
X104275000Y-75225000D01*
G75*
G02*
X104050000Y-75000000I0J225000D01*
G01*
G37*
%TD*%
%TO.C,C4*%
G36*
G01*
X105500000Y-48950000D02*
X105500000Y-49450000D01*
G75*
G02*
X105275000Y-49675000I-225000J0D01*
G01*
X104825000Y-49675000D01*
G75*
G02*
X104600000Y-49450000I0J225000D01*
G01*
X104600000Y-48950000D01*
G75*
G02*
X104825000Y-48725000I225000J0D01*
G01*
X105275000Y-48725000D01*
G75*
G02*
X105500000Y-48950000I0J-225000D01*
G01*
G37*
G36*
G01*
X107050000Y-48950000D02*
X107050000Y-49450000D01*
G75*
G02*
X106825000Y-49675000I-225000J0D01*
G01*
X106375000Y-49675000D01*
G75*
G02*
X106150000Y-49450000I0J225000D01*
G01*
X106150000Y-48950000D01*
G75*
G02*
X106375000Y-48725000I225000J0D01*
G01*
X106825000Y-48725000D01*
G75*
G02*
X107050000Y-48950000I0J-225000D01*
G01*
G37*
%TD*%
%TO.C,C3*%
G36*
G01*
X116850000Y-56900000D02*
X116850000Y-57400000D01*
G75*
G02*
X116625000Y-57625000I-225000J0D01*
G01*
X116175000Y-57625000D01*
G75*
G02*
X115950000Y-57400000I0J225000D01*
G01*
X115950000Y-56900000D01*
G75*
G02*
X116175000Y-56675000I225000J0D01*
G01*
X116625000Y-56675000D01*
G75*
G02*
X116850000Y-56900000I0J-225000D01*
G01*
G37*
G36*
G01*
X118400000Y-56900000D02*
X118400000Y-57400000D01*
G75*
G02*
X118175000Y-57625000I-225000J0D01*
G01*
X117725000Y-57625000D01*
G75*
G02*
X117500000Y-57400000I0J225000D01*
G01*
X117500000Y-56900000D01*
G75*
G02*
X117725000Y-56675000I225000J0D01*
G01*
X118175000Y-56675000D01*
G75*
G02*
X118400000Y-56900000I0J-225000D01*
G01*
G37*
%TD*%
%TO.C,C2*%
G36*
G01*
X111900000Y-44700000D02*
X111900000Y-46700000D01*
G75*
G02*
X111650000Y-46950000I-250000J0D01*
G01*
X108650000Y-46950000D01*
G75*
G02*
X108400000Y-46700000I0J250000D01*
G01*
X108400000Y-44700000D01*
G75*
G02*
X108650000Y-44450000I250000J0D01*
G01*
X111650000Y-44450000D01*
G75*
G02*
X111900000Y-44700000I0J-250000D01*
G01*
G37*
G36*
G01*
X118400000Y-44700000D02*
X118400000Y-46700000D01*
G75*
G02*
X118150000Y-46950000I-250000J0D01*
G01*
X115150000Y-46950000D01*
G75*
G02*
X114900000Y-46700000I0J250000D01*
G01*
X114900000Y-44700000D01*
G75*
G02*
X115150000Y-44450000I250000J0D01*
G01*
X118150000Y-44450000D01*
G75*
G02*
X118400000Y-44700000I0J-250000D01*
G01*
G37*
%TD*%
D16*
%TO.C,C1*%
X125300000Y-58900000D03*
X125300000Y-73900000D03*
%TD*%
M02*
