%TF.GenerationSoftware,KiCad,Pcbnew,5.1.7-a382d34a8~87~ubuntu18.04.1*%
%TF.CreationDate,2021-12-24T14:38:43-05:00*%
%TF.ProjectId,Source_Balancer_SMD,536f7572-6365-45f4-9261-6c616e636572,rev?*%
%TF.SameCoordinates,Original*%
%TF.FileFunction,Soldermask,Bot*%
%TF.FilePolarity,Negative*%
%FSLAX46Y46*%
G04 Gerber Fmt 4.6, Leading zero omitted, Abs format (unit mm)*
G04 Created by KiCad (PCBNEW 5.1.7-a382d34a8~87~ubuntu18.04.1) date 2021-12-24 14:38:43*
%MOMM*%
%LPD*%
G01*
G04 APERTURE LIST*
%ADD10C,0.100000*%
%ADD11O,1.700000X2.000000*%
%ADD12C,1.800000*%
%ADD13O,2.400000X2.400000*%
%ADD14C,2.400000*%
%ADD15C,0.900000*%
%ADD16C,10.600000*%
G04 APERTURE END LIST*
D10*
G36*
X134000000Y-91500000D02*
G01*
X120500000Y-91500000D01*
X120500000Y-78550000D01*
X134000000Y-78550000D01*
X134000000Y-91500000D01*
G37*
X134000000Y-91500000D02*
X120500000Y-91500000D01*
X120500000Y-78550000D01*
X134000000Y-78550000D01*
X134000000Y-91500000D01*
G36*
X71950000Y-71750000D02*
G01*
X59000000Y-71750000D01*
X59000000Y-58250000D01*
X71950000Y-58250000D01*
X71950000Y-71750000D01*
G37*
X71950000Y-71750000D02*
X59000000Y-71750000D01*
X59000000Y-58250000D01*
X71950000Y-58250000D01*
X71950000Y-71750000D01*
G36*
X71950000Y-91500000D02*
G01*
X59000000Y-91500000D01*
X59000000Y-78000000D01*
X71950000Y-78000000D01*
X71950000Y-91500000D01*
G37*
X71950000Y-91500000D02*
X59000000Y-91500000D01*
X59000000Y-78000000D01*
X71950000Y-78000000D01*
X71950000Y-91500000D01*
G36*
X71950000Y-52000000D02*
G01*
X59000000Y-52000000D01*
X59000000Y-38500000D01*
X71950000Y-38500000D01*
X71950000Y-52000000D01*
G37*
X71950000Y-52000000D02*
X59000000Y-52000000D01*
X59000000Y-38500000D01*
X71950000Y-38500000D01*
X71950000Y-52000000D01*
D11*
%TO.C,J5*%
X123750000Y-45500000D03*
G36*
G01*
X127100000Y-44750000D02*
X127100000Y-46250000D01*
G75*
G02*
X126850000Y-46500000I-250000J0D01*
G01*
X125650000Y-46500000D01*
G75*
G02*
X125400000Y-46250000I0J250000D01*
G01*
X125400000Y-44750000D01*
G75*
G02*
X125650000Y-44500000I250000J0D01*
G01*
X126850000Y-44500000D01*
G75*
G02*
X127100000Y-44750000I0J-250000D01*
G01*
G37*
%TD*%
D12*
%TO.C,RV2*%
X107000000Y-89800000D03*
X99500000Y-88000000D03*
%TD*%
%TO.C,RV1*%
X102500000Y-42300000D03*
X95000000Y-40500000D03*
%TD*%
D13*
%TO.C,R6*%
X116700000Y-89150000D03*
D14*
X116700000Y-73910000D03*
%TD*%
D15*
%TO.C,J4*%
X67810749Y-62189251D03*
X65000000Y-61025000D03*
X62189251Y-62189251D03*
X61025000Y-65000000D03*
X62189251Y-67810749D03*
X65000000Y-68975000D03*
X67810749Y-67810749D03*
X68975000Y-65000000D03*
D16*
X65000000Y-65000000D03*
%TD*%
D15*
%TO.C,J3*%
X67810749Y-82189251D03*
X65000000Y-81025000D03*
X62189251Y-82189251D03*
X61025000Y-85000000D03*
X62189251Y-87810749D03*
X65000000Y-88975000D03*
X67810749Y-87810749D03*
X68975000Y-85000000D03*
D16*
X65000000Y-85000000D03*
%TD*%
D15*
%TO.C,J2*%
X67810749Y-42189251D03*
X65000000Y-41025000D03*
X62189251Y-42189251D03*
X61025000Y-45000000D03*
X62189251Y-47810749D03*
X65000000Y-48975000D03*
X67810749Y-47810749D03*
X68975000Y-45000000D03*
D16*
X65000000Y-45000000D03*
%TD*%
D15*
%TO.C,J1*%
X130810749Y-82689251D03*
X128000000Y-81525000D03*
X125189251Y-82689251D03*
X124025000Y-85500000D03*
X125189251Y-88310749D03*
X128000000Y-89475000D03*
X130810749Y-88310749D03*
X131975000Y-85500000D03*
D16*
X128000000Y-85500000D03*
%TD*%
D14*
%TO.C,C1*%
X125300000Y-58900000D03*
X125300000Y-73900000D03*
%TD*%
M02*
