M48
; DRILL file {KiCad 5.1.7-a382d34a8~87~ubuntu18.04.1} date Fri Dec 24 14:39:02 2021
; FORMAT={-:-/ absolute / inch / decimal}
; #@! TF.CreationDate,2021-12-24T14:39:02-05:00
; #@! TF.GenerationSoftware,Kicad,Pcbnew,5.1.7-a382d34a8~87~ubuntu18.04.1
; #@! TF.FileFunction,Plated,1,2,PTH
FMAT,2
INCH
T1C0.0157
T2C0.0236
T3C0.0315
T4C0.0394
T5C0.0472
T6C0.2087
%
G90
G05
T1
X2.8484Y-2.9488
X2.9783Y-2.1457
X2.9783Y-2.189
X3.0315Y-2.4409
X3.0315Y-2.5197
X3.0315Y-2.5984
X3.0315Y-2.6772
X3.1496Y-2.4409
X3.1496Y-2.5197
X3.1496Y-2.5984
X3.1496Y-2.6772
X3.186Y-2.9478
X3.189Y-1.6535
X3.189Y-1.7323
X3.189Y-1.811
X3.189Y-1.8898
X3.2008Y-2.1654
X3.2677Y-2.4409
X3.2677Y-2.5197
X3.2677Y-2.5984
X3.2677Y-2.6772
X3.3071Y-1.6535
X3.3071Y-1.7323
X3.3071Y-1.811
X3.3071Y-1.8898
X3.3563Y-2.8976
X3.3563Y-2.9508
X3.3661Y-3.2283
X3.3661Y-3.3071
X3.3661Y-3.3858
X3.3661Y-3.4646
X3.3858Y-2.4409
X3.3858Y-2.5197
X3.3858Y-2.5984
X3.3858Y-2.6772
X3.3957Y-2.8976
X3.3957Y-2.9508
X3.4252Y-1.6535
X3.4252Y-1.7323
X3.4252Y-1.811
X3.4252Y-1.8898
X3.4843Y-3.2283
X3.4843Y-3.3071
X3.4843Y-3.3858
X3.4843Y-3.4646
X3.5138Y-2.1142
X3.5138Y-2.2205
X3.5236Y-2.4409
X3.5236Y-2.5197
X3.5236Y-2.5984
X3.5236Y-2.6772
X3.5433Y-1.6535
X3.5433Y-1.7323
X3.5433Y-1.811
X3.5433Y-1.8898
X3.5531Y-2.1142
X3.5531Y-2.2205
X3.6024Y-3.2283
X3.6024Y-3.3071
X3.6024Y-3.3858
X3.6024Y-3.4646
X3.6417Y-2.4409
X3.6417Y-2.5197
X3.6417Y-2.5984
X3.6417Y-2.6772
X3.6713Y-2.1654
X3.7205Y-3.2283
X3.7205Y-3.3071
X3.7205Y-3.3858
X3.7205Y-3.4646
X3.7598Y-2.4409
X3.7598Y-2.5197
X3.7598Y-2.5984
X3.7598Y-2.6772
X3.7992Y-1.9331
X3.878Y-2.4409
X3.878Y-2.5197
X3.878Y-2.5984
X3.878Y-2.6772
X3.8878Y-2.9528
X3.8947Y-3.1742
X3.8976Y-1.9665
X3.9705Y-2.8543
X3.9744Y-3.2461
X4.0984Y-1.937
X4.1142Y-3.187
X4.1181Y-2.8642
X4.1811Y-2.3898
X4.1969Y-2.185
X4.2126Y-2.9429
X4.2461Y-1.7992
X4.2461Y-1.8346
X4.2776Y-2.2283
X4.3012Y-2.5098
X4.3366Y-2.7992
X4.3661Y-2.3169
X4.3898Y-2.1339
X4.4469Y-2.6476
X4.5472Y-2.25
X4.6417Y-2.6594
X4.9331Y-1.9055
T2
X2.4026Y-3.3465
X2.4484Y-3.2358
X2.4484Y-3.4571
X2.5591Y-3.19
X2.5591Y-3.503
X2.6697Y-3.2358
X2.6697Y-3.4571
X2.7156Y-3.3465
X2.4026Y-1.7717
X2.4484Y-1.661
X2.4484Y-1.8823
X2.5591Y-1.6152
X2.5591Y-1.9281
X2.6697Y-1.661
X2.6697Y-1.8823
X2.7156Y-1.7717
X4.8829Y-3.3661
X4.9287Y-3.2555
X4.9287Y-3.4768
X5.0394Y-3.2096
X5.0394Y-3.5226
X5.15Y-3.2555
X5.15Y-3.4768
X5.1959Y-3.3661
X2.4026Y-2.5591
X2.4484Y-2.4484
X2.4484Y-2.6697
X2.5591Y-2.4026
X2.5591Y-2.7156
X2.6697Y-2.4484
X2.6697Y-2.6697
X2.7156Y-2.5591
T3
X3.7402Y-1.5945
X4.0354Y-1.6654
X3.9173Y-3.4646
X4.2126Y-3.5354
T4
X4.872Y-1.7913
X4.9705Y-1.7913
T5
X4.9331Y-2.3189
X4.9331Y-2.9094
X4.5945Y-2.9098
X4.5945Y-3.5098
T6
X2.5591Y-3.3465
X2.5591Y-1.7717
X5.0394Y-3.3661
X2.5591Y-2.5591
T0
M30
